<svg width="11" height="11" viewBox="0 0 11 11" fill="none" xmlns="http://www.w3.org/2000/svg">
<path d="M10.5718 3.36876C10.2958 2.71137 9.89425 2.11385 9.38954 1.6095C8.88634 1.10427 8.2886 0.702584 7.63026 0.427243C6.95584 0.143808 6.23121 -0.00147939 5.49942 1.13567e-05H5.47482C4.7305 0.00369439 4.0108 0.151016 3.33292 0.440748C2.68022 0.718914 2.08809 1.12131 1.58962 1.62546C1.0898 2.12867 0.692841 2.72411 0.420862 3.37858C0.138536 4.05916 -0.00452093 4.78921 0.000108887 5.52579C0.0037997 6.37779 0.208025 7.22366 0.589409 7.97991V9.84598C0.589409 10.1578 0.842845 10.4107 1.1541 10.4107H3.02166C3.78304 10.7941 4.62323 10.9958 5.47605 11H5.50188C6.23759 11 6.94992 10.8576 7.62164 10.5789C8.27666 10.3069 8.87217 9.90985 9.37478 9.41016C9.88165 8.90804 10.2803 8.32121 10.5595 7.66686C10.8486 6.98918 10.9963 6.26853 11 5.52456C11.0024 4.7769 10.8573 4.05135 10.5718 3.36876ZM3.0438 6.08929C2.71901 6.08929 2.4545 5.82534 2.4545 5.50001C2.4545 5.17467 2.71901 4.91072 3.0438 4.91072C3.36859 4.91072 3.6331 5.17467 3.6331 5.50001C3.6331 5.82534 3.36982 6.08929 3.0438 6.08929ZM5.49942 6.08929C5.17463 6.08929 4.91012 5.82534 4.91012 5.50001C4.91012 5.17467 5.17463 4.91072 5.49942 4.91072C5.82422 4.91072 6.08872 5.17467 6.08872 5.50001C6.08872 5.82534 5.82422 6.08929 5.49942 6.08929ZM7.95505 6.08929C7.63026 6.08929 7.36575 5.82534 7.36575 5.50001C7.36575 5.17467 7.63026 4.91072 7.95505 4.91072C8.27984 4.91072 8.54435 5.17467 8.54435 5.50001C8.54435 5.82534 8.27984 6.08929 7.95505 6.08929Z" fill="#999999"/>
</svg>
