<svg width="33" height="28" viewBox="0 0 33 28" fill="none" xmlns="http://www.w3.org/2000/svg">
<path d="M16.1016 3.7869L16.5 4.31228L16.8984 3.7869C18.4569 1.73163 20.9679 0.500082 23.8658 0.5C26.1565 0.502626 28.3516 1.40484 29.9699 3.00715C31.5881 4.60937 32.4974 6.78065 32.5 9.04437C32.4997 13.9135 28.8359 18.4024 24.9458 21.7755C21.0828 25.1252 17.135 27.256 16.8262 27.4179L16.8233 27.4194C16.7242 27.4722 16.6131 27.5 16.5 27.5C16.3869 27.5 16.2758 27.4722 16.1767 27.4194L16.1738 27.4179C15.865 27.256 11.9172 25.1252 8.0542 21.7755C4.16402 18.4023 0.500141 13.9133 0.5 9.04408C0.502654 6.78047 1.41196 4.6093 3.03008 3.00715C4.64836 1.40484 6.84351 0.502626 9.13422 0.5C12.0321 0.500081 14.5431 1.73163 16.1016 3.7869ZM16.2501 25.9308L16.5003 26.0751L16.7502 25.9305C18.1067 25.1463 21.6785 22.9666 24.9175 19.9888C28.1305 17.0348 31.1429 13.1812 31.1429 9.0438V9.04314C31.1403 7.13029 30.3717 5.2975 29.0072 3.94643C27.6428 2.59552 25.7941 1.83637 23.8667 1.83388H23.8661C20.8225 1.83388 18.2193 3.4412 17.1283 6.08071C17.0778 6.20247 16.9916 6.30742 16.8797 6.38164C16.7678 6.4559 16.6356 6.49586 16.5 6.49586C16.3644 6.49586 16.2322 6.4559 16.1203 6.38164C16.0084 6.30741 15.9222 6.20247 15.8717 6.08071L15.4098 6.27231L15.8718 6.08108C14.7811 3.4462 12.1782 1.83388 9.13393 1.83388L9.13328 1.83388C7.20589 1.83637 5.35717 2.59552 3.9928 3.94643C2.62827 5.2975 1.85966 7.13029 1.85714 9.04314V9.0438C1.85714 13.1869 4.86854 17.0409 8.08145 19.9937C11.3202 22.9704 14.892 25.1472 16.2501 25.9308Z" fill="#222222" stroke="#222222"/>
</svg>
