<svg width="33" height="32" viewBox="0 0 33 32" fill="none" xmlns="http://www.w3.org/2000/svg">
<path d="M2.00002 16C1.99724 17.8381 2.37037 19.6587 3.09802 21.3573C3.82566 23.0559 4.8935 24.5991 6.24026 25.8983C7.58746 27.1993 9.18697 28.2311 10.9474 28.9349C12.7078 29.6387 14.5946 30.0006 16.4999 30C18.5507 30.0048 20.5788 29.5869 22.4488 28.774L28.5106 29.6397C28.8115 29.6872 29.12 29.663 29.409 29.5692C29.6981 29.4754 29.9591 29.3149 30.1693 29.1016C30.3796 28.8884 30.5327 28.6287 30.6154 28.3453C30.6982 28.0619 30.708 27.7633 30.644 27.4754L29.8022 21.5379C30.601 19.794 31.0091 17.9068 30.9998 16C31.0025 14.1618 30.6292 12.3413 29.9016 10.6427C29.174 8.94413 28.1062 7.40094 26.7596 6.10162C25.4125 4.80063 23.813 3.76875 22.0525 3.06497C20.2921 2.36118 18.4053 1.9993 16.4999 2C12.6522 2.00025 8.96195 3.47553 6.24026 6.10162C4.89419 7.40134 3.82681 8.94461 3.09922 10.6431C2.37162 12.3416 1.99809 14.1619 2.00002 16Z" stroke="#222222" stroke-width="3" stroke-linecap="round" stroke-linejoin="round"/>
</svg>
