<svg width="31" height="28" viewBox="0 0 31 28" fill="none" xmlns="http://www.w3.org/2000/svg">
<path fill-rule="evenodd" clip-rule="evenodd" d="M30.9298 1.93143C31.0161 1.67195 31.0229 1.39622 30.9497 1.13351C30.8764 0.870802 30.7257 0.630926 30.5136 0.439355C30.3015 0.247785 30.0359 0.111672 29.745 0.0454719C29.4542 -0.0207284 29.1489 -0.0145451 28.8616 0.0633652L1.1821 7.56363C0.876159 7.6468 0.603278 7.80792 0.396174 8.02765C0.189071 8.24739 0.0565362 8.51642 0.0144636 8.80249C-0.027609 9.08855 0.0225662 9.3795 0.158973 9.64046C0.295379 9.90141 0.512226 10.1213 0.783511 10.2737L10.9652 15.9799L7.13209 19.44C6.9734 19.5783 6.84679 19.7438 6.75966 19.9268C6.67252 20.1098 6.62661 20.3066 6.62459 20.5058C6.62257 20.7049 6.66449 20.9025 6.7479 21.0869C6.83131 21.2712 6.95453 21.4388 7.11039 21.5797C7.26625 21.7206 7.45162 21.8321 7.65569 21.9076C7.85975 21.9831 8.07842 22.0211 8.29893 22.0195C8.51945 22.0179 8.7374 21.9766 8.94006 21.898C9.14272 21.8195 9.32604 21.7053 9.47931 21.5621L13.3124 18.102L19.6277 27.2923C19.7965 27.5373 20.0399 27.7332 20.3289 27.8564C20.6178 27.9796 20.9399 28.0249 21.2566 27.9869C21.5733 27.9489 21.8712 27.8292 22.1145 27.6422C22.3577 27.4551 22.5361 27.2086 22.6282 26.9323L30.9298 1.93143ZM15.7238 15.9199L20.5046 22.8802L25.8567 6.7676L15.7238 15.9199ZM23.5073 4.64552L5.6684 9.47969L13.3744 13.7998L23.5073 4.64552Z" fill="#222222"/>
</svg>
