<svg xmlns="http://www.w3.org/2000/svg" width="1024" height="219" version="1.0" viewBox="-0.96746247 -0.96746247 160.10492494 34.18367394"><path d="M152.666 32.226a.48.48 0 0 0 .48-.48v-3.328a.48.48 0 0 0-.48-.478h-4.436c-1.037 0-3.779-.054-5.29-.794-.493-.242-.866-.517-1.11-.844q-.339-.448-.34-1.148V.56a.48.48 0 0 0-.479-.479h-9.86a.476.476 0 0 0-.475.48V24.37c0 1.258.285 2.426.832 3.236a7.7 7.7 0 0 0 2.687 2.413c3.659 1.99 10.299 2.22 12.815 2.207zM86.391.081C83.874.066 77.234.298 73.576 2.29A7.7 7.7 0 0 0 70.888 4.7c-.547.81-.832 1.978-.832 3.53V31.87s.21.215.475.215h9.86a.48.48 0 0 0 .479-.479V12.919h5.922a.48.48 0 0 0 .48-.48V9.113a.48.48 0 0 0-.48-.48H80.87v-1.48c0-.47.115-.848.341-1.15.244-.324.617-.6 1.11-.842 1.51-.741 4.252-.793 5.29-.793h4.435a.48.48 0 0 0 .481-.48V.56a.48.48 0 0 0-.48-.479zM22.523 32.084a.48.48 0 0 0 .478-.479V4.434h11.753a.48.48 0 0 0 .48-.48V.627a.48.48 0 0 0-.48-.48H.48a.48.48 0 0 0-.48.48v3.327c0 .265.215.48.48.48h11.73v27.171c0 .264.214.479.479.479z" style="fill:#da0112;fill-opacity:1;fill-rule:nonzero;stroke:none"/><path d="M65.034 32.084a.48.48 0 0 0 .48-.48v-3.328a.48.48 0 0 0-.48-.48h-18.93c-1.04 0-3.782-.052-5.291-.793-.494-.242-.867-.517-1.11-.843-.227-.302-.342-.681-.342-1.148v-1.767h9.655c2.518 0 9.158-.13 12.815-1.922 1.195-.585 2.098-1.252 2.688-2.04 1.257-1.68 1.367-5.042.008-6.858-.59-.789-1.492-1.455-2.687-2.04-3.658-1.794-10.298-1.922-12.815-1.922h-4.142c-2.518 0-9.158.195-12.814 1.988-1.195.586-2.098 1.384-2.689 2.174-.546.73-.828 1.781-.828 2.915v9.466c0 1.134.282 2.185.828 2.915.591.79 1.494 1.588 2.689 2.174 3.656 1.793 10.296 2.001 12.813 1.989zM54.545 16.172c0 .47-.116.848-.343 1.15-.243.327-.616.6-1.11.842-1.51.74-4.25.793-5.29.793h-8.453v-3.71c0-.467.116-.846.341-1.148.244-.325.617-.601 1.11-.843 1.51-.74 4.253-.793 5.291-.793h1.71c1.04 0 3.782.053 5.291.793.494.242.867.518 1.11.843.227.302.343.681.343 1.149zM124.331 12.795c-.591-.79-1.492-1.589-2.689-2.175-3.656-1.792-10.296-2.001-12.813-1.987l-5.173-.003-.002.002h-11.36a.48.48 0 0 0-.48.48v3.327c0 .265.215.48.48.48h15.314c1.04 0 3.782.053 5.29.793.495.242.867.517 1.11.843.227.301.342.681.342 1.149V17.3h-9.655c-2.517 0-9.157.13-12.815 1.923-1.195.585-2.096 1.251-2.689 2.041-1.342 1.795-1.351 5.226-.008 7.021.59.79 1.494 1.455 2.688 2.041 3.658 1.794 10.298 1.922 12.814 1.922h4.144c2.517 0 9.157-.195 12.814-1.988 1.196-.585 2.097-1.383 2.688-2.174.546-.728.828-1.78.828-2.915V15.71c0-1.133-.282-2.184-.828-2.914m-9.969 12.669c0 .469-.114.847-.34 1.149-.245.327-.617.6-1.11.843-1.51.739-4.252.793-5.292.793h-1.71c-1.04 0-3.782-.054-5.292-.793-.493-.242-.865-.516-1.11-.843-.225-.302-.34-.68-.34-1.15v-1.09q0-.7.34-1.148c.245-.326.617-.601 1.11-.844 1.51-.74 4.252-.792 5.292-.792h8.453zM155.168 2.371v-.758h.558c.27 0 .53.018.53.348 0 .395-.235.41-.57.41zm0 .418h.358l.705 1.122h.567l-.764-1.155c.495-.056.711-.373.711-.762 0-.495-.296-.802-.87-.802h-1.196v2.72h.488z" style="fill:#da0112;fill-opacity:1;fill-rule:nonzero;stroke:none"/><path d="M155.629 0a2.536 2.536 0 0 0-2.538 2.539 2.537 2.537 0 0 0 2.538 2.54 2.54 2.54 0 1 0 0-5.079m0 4.603a2.063 2.063 0 1 1 0-4.127 2.063 2.063 0 0 1 0 4.127" style="fill:#da0112;fill-opacity:1;fill-rule:nonzero;stroke:none"/></svg>