

<svg version="1.1" xmlns="http://www.w3.org/2000/svg" xmlns:xlink="http://www.w3.org/1999/xlink" preserveAspectRatio="xMidYMid meet" viewBox="319 3.416494194769598 268.7274153787555 267.0094784932989" width="264.73" height="263.01"><defs><path d="M584.73 156.38L584.73 4.42L320 4.42C320 95.6 320 146.25 320 156.38C320 180.08 325.78 200.21 337.32 216.79C348.87 233.38 364.64 245.96 384.63 254.55C404.61 263.14 427.19 267.43 452.36 267.43C477.83 267.43 500.56 263.14 520.54 254.55C540.53 245.96 556.23 233.38 567.63 216.79C579.02 200.21 584.73 180.08 584.73 156.38" id="aioKAQR80"></path><path d="M549.52 170.24C547.22 170.24 545.16 169.72 543.37 168.69C541.56 167.66 540.17 166.22 539.18 164.36C538.19 162.5 537.69 160.35 537.69 157.92C537.69 155.5 538.19 153.35 539.18 151.49C540.17 149.63 541.56 148.19 543.37 147.16C545.16 146.13 547.22 145.61 549.52 145.61C551.83 145.61 553.89 146.13 555.71 147.19C557.53 148.24 558.95 149.69 559.96 151.55C560.97 153.42 561.47 155.54 561.47 157.92C561.47 160.31 560.97 162.44 559.96 164.29C558.95 166.16 557.53 167.61 555.71 168.66C553.89 169.71 551.83 170.24 549.52 170.24M550.55 138.75C547.97 138.75 545.53 139.22 543.24 140.15C540.96 141.08 539.15 142.52 537.82 144.46C537.82 144.18 537.82 141.94 537.82 141.67C537.82 140.82 537.65 140.23 537.33 139.91C537.01 139.58 536.42 139.42 535.57 139.42C535.22 139.42 532.46 139.42 532.11 139.42C531.26 139.42 530.68 139.58 530.35 139.91C530.03 140.23 529.87 140.82 529.87 141.67C529.87 146.31 529.87 183.49 529.87 188.14C529.87 188.99 530.03 189.57 530.35 189.9C530.68 190.22 531.26 190.38 532.11 190.38C532.48 190.38 535.39 190.38 535.75 190.38C536.6 190.38 537.19 190.22 537.51 189.9C537.84 189.57 538 188.99 538 188.14C538 186.49 538 173.29 538 171.64C539.41 173.5 541.23 174.87 543.46 175.76C545.68 176.65 548.05 177.09 550.55 177.09C554.03 177.09 557.23 176.29 560.14 174.67C563.05 173.05 565.36 170.79 567.05 167.88C568.75 164.96 569.6 161.65 569.6 157.92C569.6 154.21 568.75 150.89 567.05 147.98C565.36 145.06 563.05 142.8 560.14 141.18C557.23 139.56 554.03 138.75 550.55 138.75M511.3 141.67C511.3 161.18 511.3 172.01 511.3 174.18C511.3 175.03 511.47 175.62 511.79 175.94C512.11 176.27 512.7 176.43 513.55 176.43C513.91 176.43 516.83 176.43 517.19 176.43C518.04 176.43 518.62 176.27 518.95 175.94C519.27 175.62 519.43 175.03 519.43 174.18C519.43 170.93 519.43 144.92 519.43 141.67C519.43 140.82 519.27 140.23 518.95 139.91C518.62 139.58 518.04 139.42 517.19 139.42C516.83 139.42 513.91 139.42 513.55 139.42C512.7 139.42 512.11 139.58 511.79 139.91C511.47 140.23 511.3 140.82 511.3 141.67M515.37 134.45C513.75 134.45 512.37 133.88 511.21 132.75C510.06 131.62 509.48 130.24 509.48 128.62C509.48 127.01 510.06 125.63 511.21 124.5C512.37 123.37 513.75 122.8 515.37 122.8C516.99 122.8 518.37 123.37 519.52 124.5C520.68 125.63 521.25 127.01 521.25 128.62C521.25 130.24 520.68 131.62 519.52 132.75C518.37 133.88 516.99 134.45 515.37 134.45M496.62 158.53C496.62 138.77 496.62 127.79 496.62 125.59C496.62 124.78 496.46 124.22 496.14 123.89C495.81 123.57 495.25 123.41 494.44 123.41C494.07 123.41 491.11 123.41 490.74 123.41C489.89 123.41 489.3 123.57 488.98 123.89C488.66 124.22 488.49 124.8 488.49 125.65C488.49 128.96 488.49 155.46 488.49 158.77C488.49 162.66 489.21 165.88 490.65 168.45C492.08 171.02 494.32 173.23 497.35 175.09C497.57 175.23 499.32 176.29 499.54 176.43C500.1 176.75 500.55 176.91 500.87 176.91C501.39 176.91 501.9 176.53 502.39 175.76C502.58 175.46 504.13 173.09 504.33 172.79C504.69 172.22 504.87 171.78 504.87 171.45C504.87 171.17 504.78 170.91 504.6 170.66C504.42 170.42 504.12 170.16 503.72 169.88C503.57 169.77 502.36 168.95 502.2 168.84C500.79 167.88 499.69 166.98 498.9 166.15C498.11 165.32 497.53 164.31 497.17 163.11C496.81 161.92 496.62 160.39 496.62 158.53M467.08 138.69C464.94 138.69 462.83 139.18 460.77 140.15C458.71 141.12 456.99 142.74 455.61 145C454.68 142.98 453.28 141.42 451.4 140.33C449.52 139.24 447.44 138.69 445.18 138.69C443.12 138.69 441.24 139.14 439.54 140.03C437.84 140.92 436.48 142.19 435.47 143.85C435.47 143.63 435.47 141.88 435.47 141.67C435.47 140.82 435.31 140.23 434.99 139.91C434.66 139.58 434.08 139.42 433.23 139.42C432.88 139.42 430.12 139.42 429.77 139.42C428.92 139.42 428.33 139.58 428.01 139.91C427.69 140.23 427.53 140.82 427.53 141.67C427.53 144.92 427.53 170.93 427.53 174.18C427.53 175.03 427.69 175.62 428.01 175.94C428.33 176.27 428.92 176.43 429.77 176.43C430.13 176.43 433.05 176.43 433.41 176.43C434.26 176.43 434.85 176.27 435.17 175.94C435.49 175.62 435.66 175.03 435.66 174.18C435.66 172.12 435.66 155.62 435.66 153.56C435.66 151.21 436.34 149.3 437.72 147.82C439.09 146.35 440.87 145.61 443.06 145.61C445 145.61 446.57 146.24 447.79 147.49C449 148.74 449.61 150.62 449.61 153.13C449.61 155.24 449.61 172.08 449.61 174.18C449.61 175.03 449.77 175.62 450.09 175.94C450.42 176.27 451 176.43 451.85 176.43C452.22 176.43 455.13 176.43 455.49 176.43C456.34 176.43 456.93 176.27 457.25 175.94C457.58 175.62 457.74 175.03 457.74 174.18C457.74 172.12 457.74 155.62 457.74 153.56C457.74 151.21 458.43 149.3 459.8 147.82C461.17 146.35 462.97 145.61 465.2 145.61C467.18 145.61 468.78 146.24 469.99 147.49C471.2 148.74 471.81 150.62 471.81 153.13C471.81 155.24 471.81 172.08 471.81 174.18C471.81 175.03 471.97 175.62 472.3 175.94C472.62 176.27 473.21 176.43 474.06 176.43C474.42 176.43 477.33 176.43 477.7 176.43C478.54 176.43 479.13 176.27 479.46 175.94C479.78 175.62 479.94 175.03 479.94 174.18C479.94 171.94 479.94 154.04 479.94 151.8C479.94 148.85 479.31 146.39 478.06 144.43C476.81 142.47 475.2 141.02 473.24 140.09C471.27 139.16 469.22 138.69 467.08 138.69M397.44 170.24C395.13 170.24 393.07 169.71 391.25 168.66C389.43 167.61 388.01 166.16 387 164.29C385.99 162.44 385.48 160.31 385.48 157.92C385.48 155.54 385.99 153.42 387 151.55C388.01 149.69 389.43 148.24 391.25 147.19C393.07 146.13 395.13 145.61 397.44 145.61C399.74 145.61 401.79 146.13 403.59 147.16C405.39 148.19 406.79 149.63 407.78 151.49C408.77 153.35 409.27 155.5 409.27 157.92C409.27 160.35 408.77 162.5 407.78 164.36C406.79 166.22 405.39 167.66 403.59 168.69C401.79 169.72 399.74 170.24 397.44 170.24M414.85 139.42C412.77 139.42 411.62 139.42 411.39 139.42C410.54 139.42 409.95 139.58 409.63 139.91C409.31 140.23 409.14 140.82 409.14 141.67C409.14 141.94 409.14 144.18 409.14 144.46C407.81 142.52 406 141.08 403.71 140.15C401.43 139.22 398.99 138.75 396.4 138.75C392.93 138.75 389.73 139.56 386.82 141.18C383.91 142.8 381.6 145.06 379.9 147.98C378.2 150.89 377.36 154.21 377.36 157.92C377.36 161.65 378.2 164.96 379.9 167.88C381.6 170.79 383.91 173.05 386.82 174.67C389.73 176.29 392.93 177.09 396.4 177.09C398.95 177.09 401.35 176.64 403.59 175.73C405.84 174.82 407.69 173.39 409.14 171.45C409.14 171.73 409.14 173.96 409.14 174.24C409.14 175.05 409.31 175.62 409.63 175.94C409.95 176.27 410.52 176.43 411.33 176.43C411.68 176.43 414.5 176.43 414.85 176.43C415.7 176.43 416.28 176.27 416.61 175.94C416.93 175.62 417.09 175.03 417.09 174.18C417.09 170.93 417.09 144.92 417.09 141.67C417.09 140.82 416.93 140.23 416.61 139.91C416.28 139.58 415.7 139.42 414.85 139.42M360.67 154.77C355.32 154.01 352.35 153.58 351.76 153.5C348.11 152.97 346.3 151.62 346.3 149.43C346.3 148.06 347.03 146.96 348.51 146.13C349.98 145.3 351.96 144.88 354.42 144.88C356.57 144.88 358.53 145.18 360.31 145.76C362.09 146.35 363.58 147.11 364.8 148.04C365.36 148.48 365.83 148.7 366.19 148.7C366.6 148.7 367.06 148.44 367.59 147.91C367.8 147.7 369.5 145.95 369.71 145.73C370.28 145.08 370.56 144.6 370.56 144.28C370.56 143.87 370.24 143.39 369.59 142.82C367.77 141.32 365.56 140.19 362.95 139.42C360.34 138.65 357.56 138.27 354.61 138.27C351.21 138.27 348.29 138.75 345.84 139.73C343.39 140.69 341.53 142.05 340.26 143.79C338.99 145.53 338.35 147.55 338.35 149.86C338.35 152.45 339.24 154.76 341.02 156.8C342.8 158.84 345.85 160.15 350.18 160.72C350.96 160.82 357.22 161.7 358 161.81C360.07 162.09 361.59 162.58 362.58 163.26C363.57 163.95 364.07 164.9 364.07 166.11C364.07 167.61 363.31 168.78 361.79 169.63C360.28 170.48 358.19 170.91 355.52 170.91C352.93 170.91 350.54 170.52 348.36 169.76C346.17 168.99 344.25 167.92 342.59 166.54C342.03 166.09 341.54 165.87 341.14 165.87C340.73 165.87 340.25 166.17 339.68 166.78C339.48 167.02 337.83 168.91 337.62 169.15C337.17 169.63 336.95 170.1 336.95 170.54C336.95 170.95 337.21 171.39 337.74 171.88C339.84 173.78 342.51 175.21 345.75 176.15C348.98 177.1 352.26 177.58 355.58 177.58C359.01 177.58 361.98 177.07 364.46 176.06C366.95 175.05 368.85 173.64 370.17 171.82C371.48 170 372.14 167.88 372.14 165.45C372.14 162.58 371.21 160.22 369.35 158.38C367.49 156.54 364.6 155.34 360.67 154.77" id="aiLDozjI8"></path></defs><g><g><use xlink:href="#aioKAQR80" opacity="1" fill="#ed1b2a" fill-opacity="1"></use><g><use xlink:href="#aioKAQR80" opacity="1" fill-opacity="0" stroke="#000000" stroke-width="1" stroke-opacity="0"></use></g></g><g><use xlink:href="#aiLDozjI8" opacity="1" fill="#ffffff" fill-opacity="1"></use><g><use xlink:href="#aiLDozjI8" opacity="1" fill-opacity="0" stroke="#000000" stroke-width="1" stroke-opacity="0"></use></g></g></g></svg>