<svg width="252" height="252" viewBox="0 0 252 252" fill="none" xmlns="http://www.w3.org/2000/svg">
<path d="M126 6C192.276 6 246 59.724 246 126C246.011 144.63 241.679 163.006 233.349 179.67C225.019 196.334 212.92 210.828 198.012 222H222C225.183 222 228.235 223.264 230.485 225.515C232.736 227.765 234 230.817 234 234C234 237.183 232.736 240.235 230.485 242.485C228.235 244.736 225.183 246 222 246H126C59.724 246 6 192.276 6 126C6 59.724 59.724 6 126 6ZM126 150C119.635 150 113.53 152.529 109.029 157.029C104.529 161.53 102 167.635 102 174C102 180.365 104.529 186.47 109.029 190.971C113.53 195.471 119.635 198 126 198C132.365 198 138.47 195.471 142.971 190.971C147.471 186.47 150 180.365 150 174C150 167.635 147.471 161.53 142.971 157.029C138.47 152.529 132.365 150 126 150ZM78 102C71.6348 102 65.5303 104.529 61.0294 109.029C56.5286 113.53 54 119.635 54 126C54 132.365 56.5286 138.47 61.0294 142.971C65.5303 147.471 71.6348 150 78 150C84.3652 150 90.4697 147.471 94.9706 142.971C99.4714 138.47 102 132.365 102 126C102 119.635 99.4714 113.53 94.9706 109.029C90.4697 104.529 84.3652 102 78 102ZM174 102C167.635 102 161.53 104.529 157.029 109.029C152.529 113.53 150 119.635 150 126C150 132.365 152.529 138.47 157.029 142.971C161.53 147.471 167.635 150 174 150C180.365 150 186.47 147.471 190.971 142.971C195.471 138.47 198 132.365 198 126C198 119.635 195.471 113.53 190.971 109.029C186.47 104.529 180.365 102 174 102ZM126 54C119.635 54 113.53 56.5286 109.029 61.0294C104.529 65.5303 102 71.6348 102 78C102 84.3652 104.529 90.4697 109.029 94.9706C113.53 99.4714 119.635 102 126 102C132.365 102 138.47 99.4714 142.971 94.9706C147.471 90.4697 150 84.3652 150 78C150 71.6348 147.471 65.5303 142.971 61.0294C138.47 56.5286 132.365 54 126 54Z" stroke="white" stroke-width="12"/>
</svg>
