<svg width="240" height="240" viewBox="0 0 240 240" fill="none" xmlns="http://www.w3.org/2000/svg">
<path d="M110.766 30.75C111.328 30.75 112.031 31.0312 112.641 31.875C109.922 27.9844 115.688 29.6719 116.016 25.9688C119.297 23.5313 118.125 21.9375 119.062 21.8438L120.094 21C118.078 21.75 117.375 21.8906 116.812 21.8906H115.875C115.172 21.8906 114 22.0312 111.234 22.875C104.906 23.3438 100.359 30.1875 98.2031 30.375C96 31.5469 96.0938 31.7813 96.6094 31.7813C96.75 31.7813 96.9375 31.7344 97.125 31.7344C97.3125 31.7344 97.4531 31.6875 97.5938 31.6875C98.1094 31.6875 97.9688 31.9219 94.9688 33.3281C95.6719 33.5156 89.7188 36.1406 89.6719 40.2656C89.4844 41.8594 90.1406 42.9375 91.2188 42.9375C92.1563 42.9375 93.3281 42.2344 94.5938 40.4531C98.8125 35.5781 107.719 35.1094 111.562 32.1562C109.172 31.9688 109.641 30.75 110.766 30.75ZM89.3438 32.3906C88.9219 32.3906 89.4844 31.875 90.0938 31.3594C90.75 30.8438 91.5 30.3281 91.5 30.3281L91.4531 30.375C93.9844 29.3906 92.4375 29.1562 93.7969 28.5H93.7031C93.4219 28.5 93.9375 28.125 94.4062 27.7031C94.875 27.3281 95.2969 26.9063 94.875 26.9063C94.6406 26.9063 94.0312 27.0469 93 27.4688C93.3281 27 94.5938 26.6719 96.375 25.6875C93.7969 26.5312 91.7813 27.0469 91.5469 27.0469C91.3594 27.0469 92.4375 26.6719 95.6719 25.6875C95.8125 25.6875 95.9531 25.7344 96.0469 25.7344C96.375 25.7344 96.5156 25.6406 96.4688 25.5469C96.4219 25.4531 96.2344 25.4063 95.9063 25.4063C91.2656 25.7813 87.7969 28.6875 88.8281 29.0625C89.4375 28.875 89.8594 28.7813 90.1406 28.7813C90.75 28.7813 90.4688 29.2969 89.25 30.0469C89.8125 31.3594 79.875 34.7344 78.75 35.9531C79.3125 35.625 79.6875 35.5313 79.875 35.5313C80.625 35.5313 79.6406 36.9844 78.6563 37.6875C79.2656 38.25 79.7344 38.4375 80.1094 38.4375C81.0938 38.4375 81.5156 37.0781 82.3594 36.6562C82.5469 37.0312 82.7344 37.2188 82.9688 37.2188C83.7656 37.2188 84.75 35.25 85.5469 34.2188C85.7812 34.4531 86.0625 34.6406 86.4375 34.6406C87.1875 34.6406 88.3125 34.0313 90.0938 32.2969C89.7188 32.3438 89.4375 32.3906 89.3438 32.3906ZM78.5625 41.0156C76.875 42.0469 75.9844 42.4688 75.6094 42.4688C74.9063 42.4688 75.8438 41.1563 76.6875 39.7969C77.5313 38.4844 78.2812 37.1719 77.2031 37.1719C76.6875 37.1719 75.75 37.4531 74.25 38.2031C70.1719 40.9219 63.2812 48.4219 60.2344 48.4219H59.9531C64.875 44.8125 63.4219 37.7344 70.3125 35.9062C77.1094 32.0156 81.75 33.2344 87.7969 28.7813C86.0156 29.6719 83.3906 30.6563 82.7813 30.6563C82.4063 30.6563 82.9688 30.1875 85.4062 29.0156C85.1719 29.0625 84.9844 29.1094 84.8438 29.1094C83.2031 29.1094 95.625 24.6563 96.2344 24.5625C91.125 25.2656 82.875 29.5312 81.75 29.5312C81.6094 29.5312 81.6094 29.4844 81.6094 29.3906C81.7969 29.25 81.7969 29.1563 81.6094 29.1563C81 29.1563 78.4688 30 75.8906 30.8438C73.3594 31.6875 70.7813 32.5781 70.2188 32.5781C70.0313 32.5781 70.0312 32.4844 70.3125 32.2969C48.1875 44.8594 29.7188 66.0469 23.9531 91.1719C26.3438 96.6562 24.7031 107.109 28.6406 110.156C33.1406 113.953 24.7969 124.969 27 131.766C29.25 144.047 38.9531 152.438 39.9844 165C41.7656 173.625 48.2813 184.172 51 189.656C53.0625 191.719 58.7344 197.672 59.7188 197.672C60.0938 197.672 59.8594 196.781 58.3594 194.391C57.4219 191.719 51.9844 184.734 54.6094 184.734C54.75 184.734 54.8906 184.734 55.0781 184.781C51.8438 181.5 62.25 182.391 54.9844 177.938C54.1406 176.906 53.9531 176.578 54.1406 176.578C54.375 176.578 55.0312 176.953 55.7812 177.328C56.5781 177.703 57.5156 178.078 58.2656 178.078C59.4375 178.078 60.2344 177.281 59.7656 174.375C59.9531 174.469 60.1406 174.469 60.2813 174.469C61.5 174.469 61.0781 172.078 61.1719 169.688C61.2656 167.297 61.875 164.906 65.1562 164.906C65.5312 164.906 65.9531 164.953 66.375 165C73.9688 160.875 67.3594 149.484 76.0781 145.312C75.75 135.844 63.0469 135.375 58.2656 131.531C57.4688 132 56.7188 132.141 55.9688 132.141C55.125 132.141 54.375 131.953 53.7188 131.719C53.0625 131.531 52.4531 131.297 52.0312 131.297C51.9375 131.297 51.8438 131.297 51.75 131.344C59.9063 129.188 53.9531 117.844 47.2031 117.844H46.7344C46.2188 112.922 43.6875 114.797 43.4062 110.719C42.9844 110.953 42.5625 111.047 42.1406 111.047C41.0156 111.047 39.9844 110.25 39.0938 109.5C38.2031 108.703 37.4531 107.953 36.7969 107.953C36.2812 107.953 35.8125 108.469 35.3906 109.969C35.8594 107.672 35.7188 106.922 35.25 106.922C34.7812 106.922 33.9375 107.719 33 108.516C32.1094 109.312 31.0781 110.109 30.2812 110.109H30.0469C24.5625 106.219 30.0938 99.3281 27.1875 94.0313C29.0625 92.0156 29.8125 88.5938 28.9688 88.5938C28.5469 88.5938 27.7031 89.4375 26.3906 91.7344C24.5156 86.9531 29.4844 76.125 33.7031 75.5156C33.8438 75.5156 33.9375 75.4688 34.0781 75.4688C34.8281 75.4688 35.5781 75.8438 36.2344 76.6406C36.6094 78.8438 35.6719 83.4844 36.0469 83.4844C36.2344 83.4844 36.6094 82.5469 37.5469 80.1094C38.7656 74.5312 47.2969 70.5 48.1875 67.0781C48.2344 67.125 48.2344 67.125 48.2812 67.125C49.2656 67.125 55.5938 61.5469 58.3594 60.9375C59.4375 59.8594 60.1875 59.4844 60.75 59.4844C61.3594 59.4844 61.6875 59.9531 61.9219 60.375C62.1563 60.8438 62.3438 61.2656 62.5781 61.2656C62.7656 61.2656 63 60.9844 63.4219 60.1875C61.9688 57.3281 65.7188 54.6094 64.6875 54.6094C64.3125 54.6094 63.1875 54.9844 60.8906 55.9219C60.5156 56.1094 60.3281 56.1563 60.2344 56.1563C59.9531 56.1563 61.0781 55.4062 62.7188 54.6562C64.3594 53.9062 66.4219 53.1563 68.1562 53.1563C69 53.1563 69.75 53.3438 70.3125 53.8125C77.5781 52.0781 73.5938 49.6875 73.9688 49.6875H74.0625C76.125 48.4688 75.5156 43.875 78.5625 41.0156ZM46.0781 60.1875C45.9844 60.1875 46.4062 59.5781 47.8125 57.8438C50.7188 55.6875 53.0625 54.2344 50.3906 52.8281C51.5625 52.3125 52.6875 51.7031 53.7656 51.0469C53.7188 53.3438 51.7969 58.9219 50.7656 58.9219C50.5313 58.9219 50.2969 58.5938 50.2031 57.8906C50.8125 56.8125 50.8594 56.3906 50.625 56.3906C50.25 56.3906 49.1719 57.3281 48.1406 58.3125C47.1094 59.2031 46.1719 60.1875 46.0781 60.1875ZM48.75 61.4531C47.4844 61.4531 47.7188 60.6562 51.6094 59.8594C53.2969 59.625 51.9844 59.7188 54 59.25C52.0312 60.8438 49.8281 61.4531 48.75 61.4531ZM121.641 56.7188C122.203 56.625 122.625 56.625 122.953 56.625C124.312 56.625 123.703 57.1875 122.906 57.75C122.109 58.3125 121.125 58.875 121.688 58.875C122.016 58.875 122.906 58.6875 124.734 58.1719C133.969 57.5156 121.125 49.6875 123.187 47.0625L122.625 46.875C118.828 51.7031 125.156 51.7969 121.641 56.7188ZM117.797 56.9063C118.453 56.9063 119.297 56.1563 120.188 54.0469C121.406 52.5938 120.891 52.4063 119.578 51.7031C115.969 52.6406 116.297 56.9063 117.797 56.9063ZM150.141 71.7656C150 71.7656 149.906 71.8125 149.813 71.8594C150.188 71.9531 150.562 72.0469 150.938 72.0469C150.562 71.8594 150.328 71.7656 150.141 71.7656ZM213.094 83.4375C213.891 85.1719 214.312 85.875 214.359 85.875C214.688 85.875 208.453 70.6875 205.875 67.9688C192.422 45.8438 170.297 28.9219 145.078 22.5938H145.031C144.375 22.5938 145.125 22.9219 146.016 23.25C146.906 23.5781 147.984 23.9062 147.984 23.9062C147.984 23.9062 147.281 23.6719 145.125 23.0625C142.734 22.3594 140.297 21.8438 137.812 21.6563C137.391 21.7969 148.078 26.0156 155.25 28.2188C152.859 27.4688 150.375 26.8125 149.766 26.8125C149.344 26.8125 149.766 27.0938 151.5 27.8438C149.391 27.2344 148.5 26.9531 148.406 26.9531C148.266 26.9531 151.219 27.9375 153.984 28.9219C156.797 29.9063 159.469 30.8906 158.719 30.8906C158.531 30.8906 158.016 30.7969 157.219 30.6563C159.609 31.9688 160.453 32.4844 160.312 32.4844C160.078 32.4844 157.125 31.0781 154.078 29.6719C151.078 28.2656 148.031 26.8594 147.609 26.8594C147.375 26.8594 147.984 27.3281 150.047 28.5469C152.859 29.7656 155.672 30.9844 154.875 30.9844C154.5 30.9844 153.422 30.75 151.312 30.1406C156 32.5313 147.984 31.5938 150.703 34.8281C149.203 33.4219 148.594 32.9531 148.453 32.9531C148.313 32.9531 148.688 33.5156 149.062 34.0781C149.438 34.6406 149.719 35.2031 149.391 35.2031H149.297C152.578 38.7656 147 35.5781 150.984 38.7656C147.984 37.4062 142.875 35.1562 145.172 35.1562C145.734 35.1562 146.812 35.2969 148.5 35.6719C145.453 32.1094 136.828 31.9688 136.641 31.5469C134.484 31.6875 134.438 33.3281 134.813 36.3281C134.766 41.0625 130.125 41.1562 130.734 43.875C130.734 43.8281 130.781 43.8281 130.781 43.8281C130.875 43.8281 130.922 44.7656 131.203 45.75C131.531 46.6875 132.094 47.6719 133.312 47.6719C133.969 47.6719 134.812 47.3906 135.844 46.6875C137.297 49.3125 138.609 50.25 139.641 50.25C141.188 50.25 142.125 48.1406 142.031 46.2188C140.344 45.2812 138.141 37.5 140.578 37.5C140.953 37.5 141.422 37.6875 142.031 38.1094C138.234 47.4375 157.031 41.2031 146.391 45.4688C148.781 48.6094 144.891 48.4688 146.016 52.2656C144.188 52.7812 142.172 53.25 140.391 53.25C137.766 53.25 135.75 52.125 135.984 48.1875C132.703 49.9219 139.266 55.7812 132.75 55.7812H132.375C129.234 61.5469 117.469 59.5781 126.703 65.6719C127.219 68.3438 125.531 68.8125 123.375 68.8125C122.813 68.8125 122.203 68.7656 121.594 68.7188C120.984 68.6719 120.375 68.6719 119.813 68.6719C117.375 68.6719 115.641 69.2812 117.141 73.0781C116.062 77.0156 118.594 78.75 121.688 78.75C125.438 78.75 130.031 76.3125 130.359 72.2812C132.375 69.2344 134.953 67.9688 137.625 67.9688C141.844 67.9688 146.297 71.1562 149.203 75.0938C149.438 75.4688 149.625 75.6094 149.719 75.6094C149.953 75.6094 149.719 74.6719 149.625 73.7344C149.531 72.9844 149.531 72.2344 149.813 72C145.641 70.8281 142.453 65.7656 143.859 65.7656C144.328 65.7656 145.312 66.3281 146.906 67.8281H147.141C149.766 67.8281 151.828 69.8906 153.422 71.9531C155.062 74.0156 156.281 76.0781 157.359 76.0781C157.781 76.0781 158.203 75.7031 158.578 74.8594C158.391 74.5781 157.922 73.7812 157.688 72.9844C157.406 72 157.406 71.0156 158.672 71.0156C159.188 71.0156 159.891 71.2031 160.875 71.5781C164.063 70.7344 158.859 62.4375 163.078 62.4375C163.5 62.4375 164.016 62.5313 164.672 62.7188C164.625 64.1719 165.281 64.6875 165.891 64.6875C167.109 64.6875 168.328 62.9531 165.375 62.4375C166.5 61.3594 167.156 60.9375 167.625 60.9375C169.266 60.9375 167.953 66.375 173.625 66.375C175.547 70.9219 156.938 66.7031 162.891 75.4219C164.25 76.4062 165.938 76.5938 167.578 76.5938C168.094 76.5938 168.563 76.5938 169.031 76.5469C169.5 76.5469 169.969 76.5 170.391 76.5C173.297 76.5 175.359 77.2031 174.094 83.2031C172.547 84.3281 170.813 84.7031 169.031 84.7031C167.438 84.7031 165.844 84.4219 164.297 84.1406C162.75 83.8594 161.25 83.5781 159.891 83.5781C157.781 83.5781 156.094 84.2812 155.062 86.7188C149.578 84.4688 142.359 84.375 143.063 77.5781C133.5 78.9375 123.516 78.2344 116.484 84.0938C116.062 92.6719 101.344 95.4375 104.906 105.188C100.641 114.188 110.063 126.797 119.672 126.797C120 126.797 120.375 126.797 120.703 126.75C125.953 126.703 131.25 124.359 135.891 124.359C138.281 124.359 140.438 124.969 142.313 126.844C142.734 126.797 143.109 126.75 143.438 126.75C150.609 126.75 141.141 138.141 149.719 140.062C157.5 148.125 144.938 156.422 151.078 164.156C151.734 170.203 154.734 175.266 154.734 181.172C155.531 181.266 156.281 181.312 157.078 181.312C166.969 181.312 173.156 172.688 178.969 166.172C177.188 156.422 192.797 154.5 187.453 143.578C184.969 131.625 199.219 124.547 198.422 112.594C198.562 110.906 198.094 110.391 197.391 110.391C196.688 110.391 195.656 110.906 194.672 111.375C193.641 111.891 192.516 112.359 191.625 112.359C190.453 112.359 189.563 111.562 189.469 108.938C182.578 102.516 179.438 93.7969 173.016 86.7188C181.359 90.75 186.094 99.8438 189.938 108.094C190.266 108.188 190.594 108.234 190.969 108.234C197.766 108.234 207.234 91.9688 196.922 88.0313C196.359 89.5781 195.609 90.1406 194.719 90.1406C193.172 90.1406 191.391 88.2656 190.125 86.4375C188.859 84.5625 188.203 82.6875 188.906 82.6875C189.375 82.6875 190.406 83.4375 192.188 85.4062C194.203 86.6719 196.172 87 198.234 87C200.25 87 202.313 86.6719 204.469 86.4844C207.188 87.5625 208.359 91.0312 209.203 91.0312C209.344 91.0312 209.531 90.8906 209.672 90.5625C211.828 95.7188 214.312 104.906 216.562 107.391C215.391 99.5156 215.109 91.1719 213.094 83.4375ZM186.938 72.6094C181.641 71.25 179.906 64.6875 175.734 60.8906C175.688 59.8594 177.234 60.0469 176.859 58.3125C182.484 60.0469 180.656 61.7812 180.141 62.1094C182.203 65.5312 187.969 67.875 186.938 72.6094ZM114.141 36.9375C109.031 38.4375 108.328 36.7969 109.219 39.9375C109.594 40.2188 110.297 40.3125 111 40.3125C113.484 40.3594 116.859 38.9063 114.141 36.9375ZM189.188 166.078C195.891 160.406 196.734 153.656 197.062 146.813C194.062 152.672 185.156 159.141 189.188 166.078ZM158.672 74.6719C158.625 74.7188 158.625 74.7188 158.625 74.7656C158.672 74.8594 158.719 74.8594 158.719 74.8594C158.719 74.8594 158.719 74.8125 158.672 74.6719ZM120 0C53.7188 0 0 53.7188 0 120C0 186.281 53.7188 240 120 240C186.281 240 240 186.281 240 120C240 53.7188 186.281 0 120 0ZM120 230.766C58.8281 230.766 9.23438 181.172 9.23438 120C9.23438 58.8281 58.8281 9.23438 120 9.23438C181.172 9.23438 230.766 58.8281 230.766 120C230.766 181.172 181.172 230.766 120 230.766Z" fill="white"/>
</svg>
