<svg width="316" height="240" viewBox="0 0 316 240" fill="none" xmlns="http://www.w3.org/2000/svg">
<path d="M295.435 127.592V87.2791C299.401 88.0648 303.078 90.0082 305.978 92.9062C309.834 96.7601 312 101.987 312 107.436C312 112.885 309.834 118.111 305.978 121.965C303.078 124.863 299.401 126.806 295.435 127.592ZM258.51 5.69543L258.563 5.67456L258.615 5.65218C261.713 4.3297 265.089 3.78795 268.446 4.07467C271.789 4.36025 275.011 5.45898 277.832 7.27458C280.59 9.14573 282.852 11.659 284.422 14.5978C285.998 17.5465 286.83 20.8347 286.846 24.1771C286.846 24.1793 286.846 24.1814 286.846 24.1836L286.846 191.234C286.744 194.476 285.875 197.648 284.311 200.491C282.739 203.347 280.509 205.789 277.806 207.614C274.382 209.907 270.373 211.17 266.252 211.254C263.605 211.238 260.984 210.734 258.519 209.769C258.515 209.767 258.511 209.765 258.507 209.764L139.046 162.049L133.562 159.859V165.764V215.451C133.562 220.872 131.419 226.074 127.598 229.923C123.781 233.769 118.598 235.953 113.177 236H100.827C96.926 235.971 93.1119 234.845 89.822 232.75C86.5288 230.653 83.8944 227.671 82.2211 224.146C82.221 224.145 82.2208 224.145 82.2206 224.145L52.7467 161.7L51.6642 159.407L49.1282 159.407C43.7578 159.409 38.6002 157.311 34.7576 153.563C30.9261 149.826 28.7051 144.744 28.5647 139.397V136.894V132.894H24.5647H4V81.9769H24.5647H28.5647V77.9769V76.013C28.5647 70.5639 30.7307 65.3375 34.587 61.4836C38.4435 57.6296 43.6744 55.464 49.1294 55.464H126.747C130.361 55.4752 133.941 54.7767 137.285 53.4082C137.294 53.4044 137.303 53.4006 137.313 53.3968L258.51 5.69543ZM116.998 76.013V72.013H112.998H49.1294H45.1294V76.013V139.447V143.447H49.1294H112.998H116.998V139.447V76.013ZM112.998 219.451H116.998V215.451V163.407V159.407H112.998H76.4453H70.1771L72.8175 165.092L96.9891 217.136L98.0643 219.451H100.617H112.998ZM143.015 145.956L143.182 146.041L143.355 146.11L264.803 194.422L270.281 196.602V190.706V24.1656V18.2695L264.803 20.4489L143.377 68.7527C143.373 68.7539 143.37 68.7552 143.367 68.7565C141.22 69.5955 139.006 70.2529 136.749 70.7219L133.562 71.3838V74.6382V139.447V142.403L136.387 143.271C138.671 143.973 140.888 144.871 143.015 145.956Z" stroke="white" stroke-width="8"/>
</svg>
