<svg width="256" height="248" viewBox="0 0 256 248" fill="none" xmlns="http://www.w3.org/2000/svg">
<path d="M66.0019 244H252V4H4V244H66.0019ZM206.54 20.5517H235.466V41.2414H206.54V20.5517ZM206.54 57.7931H235.466V78.4828H206.54V57.7931ZM206.54 95.0345H235.466V115.724H206.54V95.0345ZM206.54 132.276H235.466V152.966H206.54V132.276ZM206.54 169.517H235.466V190.207H206.54V169.517ZM206.54 206.759H235.466V227.448H206.54V206.759ZM66.0019 95.0345V20.5517H189.998V115.724H66.0019V95.0345ZM66.0019 206.759V132.276H189.998V227.448H66.0019V206.759ZM20.5339 20.5517H49.4681V41.2414H20.5339V20.5517ZM20.5339 57.7931H49.4681V78.4828H20.5339V57.7931ZM20.5339 95.0345H49.4681V115.724H20.5339V95.0345ZM20.5339 132.276H49.4681V152.966H20.5339V132.276ZM20.5339 169.517H49.4681V190.207H20.5339V169.517ZM20.5339 206.759H49.4681V227.448H20.5339V206.759Z" stroke="white" stroke-width="8"/>
</svg>
