<svg width="179" height="83" viewBox="0 0 179 83" fill="none" xmlns="http://www.w3.org/2000/svg">
<path d="M0.5 28H16.5L88.5 44L125.75 63H152H178.5" stroke="#E3E5E8" stroke-width="2"/>
<path d="M15.5 39.5L15.5 82.5M52.5 48.5V82.5M89.5 57.5V82.5M126.5 75.5V82.5M163.5 75.5V82.5" stroke="#E3E5E8"/>
<path d="M0.5 28H16.5L88.5 44L125.75 63H152H178.5" stroke="#E3E5E8" stroke-width="2"/>
<path d="M15.5 39.5L15.5 82.5M52.5 48.5V82.5M89.5 57.5V82.5M126.5 75.5V82.5M163.5 75.5V82.5" stroke="#E3E5E8"/>
<path d="M10.1733 13.1293C9.56392 13.1293 9.02072 13.0246 8.54368 12.8153C8.06972 12.6061 7.69271 12.3152 7.41264 11.9428C7.13565 11.5674 6.98485 11.1319 6.96023 10.6364H8.12358C8.1482 10.9411 8.25284 11.2042 8.4375 11.4258C8.62216 11.6443 8.86375 11.8136 9.16229 11.9336C9.46082 12.0536 9.79167 12.1136 10.1548 12.1136C10.5611 12.1136 10.9212 12.0429 11.2351 11.9013C11.549 11.7597 11.7952 11.5627 11.9737 11.3104C12.1522 11.058 12.2415 10.7656 12.2415 10.4332C12.2415 10.0855 12.1553 9.77924 11.983 9.51456C11.8106 9.2468 11.5582 9.03752 11.2259 8.88672C10.8935 8.73591 10.4872 8.66051 10.0071 8.66051H9.25V7.64489H10.0071C10.3826 7.64489 10.7119 7.57718 10.995 7.44176C11.2813 7.30634 11.5044 7.11553 11.6644 6.86932C11.8275 6.62311 11.9091 6.33381 11.9091 6.00142C11.9091 5.68134 11.8383 5.40282 11.6967 5.16584C11.5552 4.92886 11.3551 4.7442 11.0966 4.61186C10.8411 4.47952 10.5395 4.41335 10.1918 4.41335C9.86553 4.41335 9.55777 4.47337 9.26847 4.59339C8.98224 4.71035 8.74834 4.88116 8.56676 5.10582C8.38518 5.32741 8.2867 5.59517 8.27131 5.90909H7.16335C7.18182 5.41359 7.33108 4.97964 7.61115 4.60724C7.89122 4.23177 8.25746 3.93939 8.70987 3.73011C9.16536 3.52083 9.66548 3.41619 10.2102 3.41619C10.795 3.41619 11.2966 3.53468 11.7152 3.77166C12.1338 4.00556 12.4554 4.31487 12.68 4.69957C12.9047 5.08428 13.017 5.49976 13.017 5.94602C13.017 6.47846 12.877 6.93241 12.5969 7.30788C12.32 7.68336 11.9429 7.94342 11.4659 8.08807V8.16193C12.063 8.26042 12.5292 8.51432 12.8647 8.92365C13.2002 9.3299 13.3679 9.8331 13.3679 10.4332C13.3679 10.9472 13.2279 11.4089 12.9478 11.8182C12.6708 12.2244 12.2923 12.5445 11.8121 12.7784C11.332 13.0123 10.7857 13.1293 10.1733 13.1293ZM18.5799 3.54545V13H17.435V4.74574H17.3796L15.0714 6.27841V5.11506L17.435 3.54545H18.5799ZM23.2749 7.71875C22.884 7.71875 22.527 7.62334 22.2038 7.43253C21.8838 7.24171 21.6283 6.98627 21.4375 6.66619C21.2467 6.34304 21.1513 5.98603 21.1513 5.59517C21.1513 5.20431 21.2467 4.84884 21.4375 4.52876C21.6283 4.20561 21.8838 3.94863 22.2038 3.75781C22.527 3.567 22.884 3.47159 23.2749 3.47159C23.6657 3.47159 24.0212 3.567 24.3413 3.75781C24.6644 3.94863 24.9214 4.20561 25.1122 4.52876C25.303 4.84884 25.3984 5.20431 25.3984 5.59517C25.3984 5.98603 25.303 6.34304 25.1122 6.66619C24.9214 6.98627 24.6644 7.24171 24.3413 7.43253C24.0212 7.62334 23.6657 7.71875 23.2749 7.71875ZM23.2749 6.79545C23.4964 6.79545 23.698 6.7416 23.8796 6.63388C24.0612 6.52616 24.2058 6.38151 24.3136 6.19993C24.4213 6.01835 24.4751 5.81676 24.4751 5.59517C24.4751 5.37358 24.4213 5.17199 24.3136 4.99041C24.2058 4.80883 24.0612 4.66418 23.8796 4.55646C23.698 4.44875 23.4964 4.39489 23.2749 4.39489C23.0533 4.39489 22.8517 4.44875 22.6701 4.55646C22.4885 4.66418 22.3439 4.80883 22.2362 4.99041C22.1284 5.17199 22.0746 5.37358 22.0746 5.59517C22.0746 5.81676 22.1284 6.01835 22.2362 6.19993C22.3439 6.38151 22.4885 6.52616 22.6701 6.63388C22.8517 6.7416 23.0533 6.79545 23.2749 6.79545Z" fill="black"/>
<path d="M46.1733 22.1293C45.5639 22.1293 45.0207 22.0246 44.5437 21.8153C44.0697 21.6061 43.6927 21.3152 43.4126 20.9428C43.1357 20.5674 42.9848 20.1319 42.9602 19.6364H44.1236C44.1482 19.9411 44.2528 20.2042 44.4375 20.4258C44.6222 20.6443 44.8638 20.8136 45.1623 20.9336C45.4608 21.0536 45.7917 21.1136 46.1548 21.1136C46.5611 21.1136 46.9212 21.0429 47.2351 20.9013C47.549 20.7597 47.7952 20.5627 47.9737 20.3104C48.1522 20.058 48.2415 19.7656 48.2415 19.4332C48.2415 19.0855 48.1553 18.7792 47.983 18.5146C47.8106 18.2468 47.5582 18.0375 47.2259 17.8867C46.8935 17.7359 46.4872 17.6605 46.0071 17.6605H45.25V16.6449H46.0071C46.3826 16.6449 46.7119 16.5772 46.995 16.4418C47.2813 16.3063 47.5044 16.1155 47.6644 15.8693C47.8275 15.6231 47.9091 15.3338 47.9091 15.0014C47.9091 14.6813 47.8383 14.4028 47.6967 14.1658C47.5552 13.9289 47.3551 13.7442 47.0966 13.6119C46.8411 13.4795 46.5395 13.4134 46.1918 13.4134C45.8655 13.4134 45.5578 13.4734 45.2685 13.5934C44.9822 13.7103 44.7483 13.8812 44.5668 14.1058C44.3852 14.3274 44.2867 14.5952 44.2713 14.9091H43.1634C43.1818 14.4136 43.3311 13.9796 43.6112 13.6072C43.8912 13.2318 44.2575 12.9394 44.7099 12.7301C45.1654 12.5208 45.6655 12.4162 46.2102 12.4162C46.795 12.4162 47.2966 12.5347 47.7152 12.7717C48.1338 13.0056 48.4554 13.3149 48.68 13.6996C48.9047 14.0843 49.017 14.4998 49.017 14.946C49.017 15.4785 48.877 15.9324 48.5969 16.3079C48.32 16.6834 47.9429 16.9434 47.4659 17.0881V17.1619C48.063 17.2604 48.5292 17.5143 48.8647 17.9237C49.2002 18.3299 49.3679 18.8331 49.3679 19.4332C49.3679 19.9472 49.2279 20.4089 48.9478 20.8182C48.6708 21.2244 48.2923 21.5445 47.8121 21.7784C47.332 22.0123 46.7857 22.1293 46.1733 22.1293ZM54.3398 22.1293C53.6443 22.1293 53.0518 21.94 52.5625 21.5614C52.0732 21.1798 51.6992 20.6274 51.4407 19.9041C51.1822 19.1778 51.0529 18.3007 51.0529 17.2727C51.0529 16.2509 51.1822 15.3784 51.4407 14.6552C51.7023 13.9289 52.0778 13.3749 52.5671 12.9933C53.0595 12.6085 53.6504 12.4162 54.3398 12.4162C55.0292 12.4162 55.6186 12.6085 56.108 12.9933C56.6004 13.3749 56.9759 13.9289 57.2344 14.6552C57.496 15.3784 57.6268 16.2509 57.6268 17.2727C57.6268 18.3007 57.4975 19.1778 57.239 19.9041C56.9805 20.6274 56.6065 21.1798 56.1172 21.5614C55.6278 21.94 55.0354 22.1293 54.3398 22.1293ZM54.3398 21.1136C55.0292 21.1136 55.5647 20.7812 55.9464 20.1165C56.328 19.4517 56.5188 18.5038 56.5188 17.2727C56.5188 16.4541 56.4311 15.757 56.2557 15.1815C56.0833 14.6059 55.834 14.1674 55.5078 13.8658C55.1847 13.5642 54.7953 13.4134 54.3398 13.4134C53.6566 13.4134 53.1226 13.7504 52.7379 14.4244C52.3532 15.0953 52.1609 16.0447 52.1609 17.2727C52.1609 18.0914 52.247 18.7869 52.4194 19.3594C52.5917 19.9318 52.8395 20.3673 53.1626 20.6658C53.4889 20.9644 53.8813 21.1136 54.3398 21.1136ZM61.3569 16.7188C60.966 16.7188 60.609 16.6233 60.2859 16.4325C59.9658 16.2417 59.7103 15.9863 59.5195 15.6662C59.3287 15.343 59.2333 14.986 59.2333 14.5952C59.2333 14.2043 59.3287 13.8488 59.5195 13.5288C59.7103 13.2056 59.9658 12.9486 60.2859 12.7578C60.609 12.567 60.966 12.4716 61.3569 12.4716C61.7478 12.4716 62.1032 12.567 62.4233 12.7578C62.7464 12.9486 63.0034 13.2056 63.1942 13.5288C63.3851 13.8488 63.4805 14.2043 63.4805 14.5952C63.4805 14.986 63.3851 15.343 63.1942 15.6662C63.0034 15.9863 62.7464 16.2417 62.4233 16.4325C62.1032 16.6233 61.7478 16.7188 61.3569 16.7188ZM61.3569 15.7955C61.5785 15.7955 61.7801 15.7416 61.9616 15.6339C62.1432 15.5262 62.2879 15.3815 62.3956 15.1999C62.5033 15.0183 62.5572 14.8168 62.5572 14.5952C62.5572 14.3736 62.5033 14.172 62.3956 13.9904C62.2879 13.8088 62.1432 13.6642 61.9616 13.5565C61.7801 13.4487 61.5785 13.3949 61.3569 13.3949C61.1353 13.3949 60.9337 13.4487 60.7521 13.5565C60.5705 13.6642 60.4259 13.8088 60.3182 13.9904C60.2105 14.172 60.1566 14.3736 60.1566 14.5952C60.1566 14.8168 60.2105 15.0183 60.3182 15.1999C60.4259 15.3815 60.5705 15.5262 60.7521 15.6339C60.9337 15.7416 61.1353 15.7955 61.3569 15.7955Z" fill="black"/>
<path d="M79.9787 31V30.169L83.0994 26.7528C83.4657 26.3527 83.7673 26.005 84.0043 25.7095C84.2412 25.411 84.4167 25.1309 84.5305 24.8693C84.6475 24.6046 84.706 24.3277 84.706 24.0384C84.706 23.706 84.6259 23.4182 84.4659 23.1751C84.3089 22.9319 84.0935 22.7442 83.8196 22.6119C83.5457 22.4795 83.2379 22.4134 82.8963 22.4134C82.5331 22.4134 82.2161 22.4888 81.9453 22.6396C81.6776 22.7873 81.4698 22.995 81.3221 23.2628C81.1774 23.5305 81.1051 23.8445 81.1051 24.2045H80.0156C80.0156 23.6506 80.1433 23.1643 80.3988 22.7457C80.6542 22.3272 81.002 22.0009 81.4421 21.767C81.8853 21.5331 82.3823 21.4162 82.9332 21.4162C83.4872 21.4162 83.9781 21.5331 84.4059 21.767C84.8337 22.0009 85.1692 22.3164 85.4123 22.7134C85.6554 23.1104 85.777 23.5521 85.777 24.0384C85.777 24.3861 85.7139 24.7262 85.5877 25.0586C85.4646 25.3879 85.2492 25.7557 84.9414 26.1619C84.6367 26.5651 84.2135 27.0575 83.6719 27.6392L81.5483 29.9105V29.9844H85.9432V31H79.9787ZM90.8597 21.4162C91.2475 21.4193 91.6353 21.4931 92.0231 21.6378C92.4109 21.7824 92.7648 22.0225 93.0849 22.358C93.4049 22.6903 93.6619 23.1443 93.8558 23.7198C94.0497 24.2953 94.1467 25.017 94.1467 25.8849C94.1467 26.7251 94.0666 27.4715 93.9066 28.1239C93.7496 28.7733 93.5219 29.3211 93.2234 29.7674C92.9279 30.2137 92.5678 30.5522 92.1431 30.783C91.7215 31.0138 91.2444 31.1293 90.712 31.1293C90.1826 31.1293 89.7102 31.0246 89.2947 30.8153C88.8823 30.603 88.5438 30.3091 88.2791 29.9336C88.0175 29.555 87.8498 29.1165 87.7759 28.6179H88.9023C89.0039 29.0518 89.2055 29.4104 89.5071 29.6935C89.8118 29.9736 90.2134 30.1136 90.712 30.1136C91.4414 30.1136 92.0169 29.7951 92.4386 29.158C92.8633 28.521 93.0756 27.6207 93.0756 26.4574H93.0018C92.8294 26.7159 92.6248 26.939 92.3878 27.1268C92.1508 27.3145 91.8877 27.4592 91.5984 27.5607C91.3091 27.6623 91.0013 27.7131 90.6751 27.7131C90.1334 27.7131 89.6364 27.5792 89.1839 27.3114C88.7346 27.0406 88.3745 26.6697 88.1037 26.1989C87.8359 25.7249 87.7021 25.1832 87.7021 24.5739C87.7021 23.9953 87.8313 23.4659 88.0898 22.9858C88.3514 22.5026 88.7177 22.1179 89.1886 21.8317C89.6625 21.5455 90.2196 21.407 90.8597 21.4162ZM90.8597 22.4318C90.4719 22.4318 90.1226 22.5288 89.8118 22.7227C89.504 22.9135 89.2594 23.172 89.0778 23.4982C88.8993 23.8214 88.81 24.1799 88.81 24.5739C88.81 24.9678 88.8962 25.3263 89.0685 25.6495C89.244 25.9696 89.4825 26.225 89.7841 26.4158C90.0888 26.6036 90.435 26.6974 90.8228 26.6974C91.1152 26.6974 91.3875 26.6405 91.6399 26.5266C91.8923 26.4097 92.1123 26.2512 92.3001 26.0511C92.4909 25.848 92.6402 25.6187 92.7479 25.3633C92.8556 25.1048 92.9094 24.8355 92.9094 24.5554C92.9094 24.1861 92.8202 23.8398 92.6417 23.5167C92.4663 23.1935 92.2231 22.9319 91.9123 22.7319C91.6045 22.5318 91.2537 22.4318 90.8597 22.4318ZM97.9379 25.7188C97.5471 25.7188 97.1901 25.6233 96.8669 25.4325C96.5468 25.2417 96.2914 24.9863 96.1006 24.6662C95.9098 24.343 95.8144 23.986 95.8144 23.5952C95.8144 23.2043 95.9098 22.8488 96.1006 22.5288C96.2914 22.2056 96.5468 21.9486 96.8669 21.7578C97.1901 21.567 97.5471 21.4716 97.9379 21.4716C98.3288 21.4716 98.6843 21.567 99.0044 21.7578C99.3275 21.9486 99.5845 22.2056 99.7753 22.5288C99.9661 22.8488 100.062 23.2043 100.062 23.5952C100.062 23.986 99.9661 24.343 99.7753 24.6662C99.5845 24.9863 99.3275 25.2417 99.0044 25.4325C98.6843 25.6233 98.3288 25.7188 97.9379 25.7188ZM97.9379 24.7955C98.1595 24.7955 98.3611 24.7416 98.5427 24.6339C98.7243 24.5262 98.8689 24.3815 98.9767 24.1999C99.0844 24.0183 99.1382 23.8168 99.1382 23.5952C99.1382 23.3736 99.0844 23.172 98.9767 22.9904C98.8689 22.8088 98.7243 22.6642 98.5427 22.5565C98.3611 22.4487 98.1595 22.3949 97.9379 22.3949C97.7164 22.3949 97.5148 22.4487 97.3332 22.5565C97.1516 22.6642 97.007 22.8088 96.8992 22.9904C96.7915 23.172 96.7377 23.3736 96.7377 23.5952C96.7377 23.8168 96.7915 24.0183 96.8992 24.1999C97.007 24.3815 97.1516 24.5262 97.3332 24.6339C97.5148 24.7416 97.7164 24.7955 97.9379 24.7955Z" fill="black"/>
<path d="M116.979 49V48.169L120.099 44.7528C120.466 44.3527 120.767 44.005 121.004 43.7095C121.241 43.411 121.417 43.1309 121.531 42.8693C121.647 42.6046 121.706 42.3277 121.706 42.0384C121.706 41.706 121.626 41.4182 121.466 41.1751C121.309 40.9319 121.094 40.7442 120.82 40.6119C120.546 40.4795 120.238 40.4134 119.896 40.4134C119.533 40.4134 119.216 40.4888 118.945 40.6396C118.678 40.7873 118.47 40.995 118.322 41.2628C118.177 41.5305 118.105 41.8445 118.105 42.2045H117.016C117.016 41.6506 117.143 41.1643 117.399 40.7457C117.654 40.3272 118.002 40.0009 118.442 39.767C118.885 39.5331 119.382 39.4162 119.933 39.4162C120.487 39.4162 120.978 39.5331 121.406 39.767C121.834 40.0009 122.169 40.3164 122.412 40.7134C122.655 41.1104 122.777 41.5521 122.777 42.0384C122.777 42.3861 122.714 42.7262 122.588 43.0586C122.465 43.3879 122.249 43.7557 121.941 44.1619C121.637 44.5651 121.214 45.0575 120.672 45.6392L118.548 47.9105V47.9844H122.943V49H116.979ZM125.145 49L129.374 40.6349V40.5611H124.499V39.5455H130.556V40.6165L126.346 49H125.145ZM134.252 43.7188C133.862 43.7188 133.505 43.6233 133.181 43.4325C132.861 43.2417 132.606 42.9863 132.415 42.6662C132.224 42.343 132.129 41.986 132.129 41.5952C132.129 41.2043 132.224 40.8488 132.415 40.5288C132.606 40.2056 132.861 39.9486 133.181 39.7578C133.505 39.567 133.862 39.4716 134.252 39.4716C134.643 39.4716 134.999 39.567 135.319 39.7578C135.642 39.9486 135.899 40.2056 136.09 40.5288C136.281 40.8488 136.376 41.2043 136.376 41.5952C136.376 41.986 136.281 42.343 136.09 42.6662C135.899 42.9863 135.642 43.2417 135.319 43.4325C134.999 43.6233 134.643 43.7188 134.252 43.7188ZM134.252 42.7955C134.474 42.7955 134.676 42.7416 134.857 42.6339C135.039 42.5262 135.183 42.3815 135.291 42.1999C135.399 42.0183 135.453 41.8168 135.453 41.5952C135.453 41.3736 135.399 41.172 135.291 40.9904C135.183 40.8088 135.039 40.6642 134.857 40.5565C134.676 40.4487 134.474 40.3949 134.252 40.3949C134.031 40.3949 133.829 40.4487 133.648 40.5565C133.466 40.6642 133.321 40.8088 133.214 40.9904C133.106 41.172 133.052 41.3736 133.052 41.5952C133.052 41.8168 133.106 42.0183 133.214 42.1999C133.321 42.3815 133.466 42.5262 133.648 42.6339C133.829 42.7416 134.031 42.7955 134.252 42.7955Z" fill="black"/>
<path d="M153.979 49V48.169L157.099 44.7528C157.466 44.3527 157.767 44.005 158.004 43.7095C158.241 43.411 158.417 43.1309 158.531 42.8693C158.647 42.6046 158.706 42.3277 158.706 42.0384C158.706 41.706 158.626 41.4182 158.466 41.1751C158.309 40.9319 158.094 40.7442 157.82 40.6119C157.546 40.4795 157.238 40.4134 156.896 40.4134C156.533 40.4134 156.216 40.4888 155.945 40.6396C155.678 40.7873 155.47 40.995 155.322 41.2628C155.177 41.5305 155.105 41.8445 155.105 42.2045H154.016C154.016 41.6506 154.143 41.1643 154.399 40.7457C154.654 40.3272 155.002 40.0009 155.442 39.767C155.885 39.5331 156.382 39.4162 156.933 39.4162C157.487 39.4162 157.978 39.5331 158.406 39.767C158.834 40.0009 159.169 40.3164 159.412 40.7134C159.655 41.1104 159.777 41.5521 159.777 42.0384C159.777 42.3861 159.714 42.7262 159.588 43.0586C159.465 43.3879 159.249 43.7557 158.941 44.1619C158.637 44.5651 158.214 45.0575 157.672 45.6392L155.548 47.9105V47.9844H159.943V49H153.979ZM162.145 49L166.374 40.6349V40.5611H161.499V39.5455H167.556V40.6165L163.346 49H162.145ZM171.252 43.7188C170.862 43.7188 170.505 43.6233 170.181 43.4325C169.861 43.2417 169.606 42.9863 169.415 42.6662C169.224 42.343 169.129 41.986 169.129 41.5952C169.129 41.2043 169.224 40.8488 169.415 40.5288C169.606 40.2056 169.861 39.9486 170.181 39.7578C170.505 39.567 170.862 39.4716 171.252 39.4716C171.643 39.4716 171.999 39.567 172.319 39.7578C172.642 39.9486 172.899 40.2056 173.09 40.5288C173.281 40.8488 173.376 41.2043 173.376 41.5952C173.376 41.986 173.281 42.343 173.09 42.6662C172.899 42.9863 172.642 43.2417 172.319 43.4325C171.999 43.6233 171.643 43.7188 171.252 43.7188ZM171.252 42.7955C171.474 42.7955 171.676 42.7416 171.857 42.6339C172.039 42.5262 172.183 42.3815 172.291 42.1999C172.399 42.0183 172.453 41.8168 172.453 41.5952C172.453 41.3736 172.399 41.172 172.291 40.9904C172.183 40.8088 172.039 40.6642 171.857 40.5565C171.676 40.4487 171.474 40.3949 171.252 40.3949C171.031 40.3949 170.829 40.4487 170.648 40.5565C170.466 40.6642 170.321 40.8088 170.214 40.9904C170.106 41.172 170.052 41.3736 170.052 41.5952C170.052 41.8168 170.106 42.0183 170.214 42.1999C170.321 42.3815 170.466 42.5262 170.648 42.6339C170.829 42.7416 171.031 42.7955 171.252 42.7955Z" fill="black"/>
</svg>
