<svg xmlns="http://www.w3.org/2000/svg" xml:space="preserve" width="261.13226" height="32.009571" viewBox="0 0 261.13226 32.009571"><defs><clipPath id="a" clipPathUnits="userSpaceOnUse"><path d="M0 595.28h419.53V0H0Z"/></clipPath></defs><path d="M0 0v2.042h4.225V6.21H-5.376V-9.717H0v5.552h3.799V0Z" style="fill:#e1002b;fill-opacity:1;fill-rule:nonzero;stroke:none" transform="matrix(1.33333 0 0 -1.33333 51.442 18.442)"/><path d="M0 0v1.91h3.804v3.889H0v1.792h4.231v4.166h-9.608V-4.168h9.802V0Z" style="fill:#e1002b;fill-opacity:1;fill-rule:nonzero;stroke:none" transform="matrix(1.33333 0 0 -1.33333 85.442 25.84)"/><g clip-path="url(#a)" transform="matrix(1.33333 0 0 -1.33333 -143.466 413.104)"><path d="M0 0a1.69 1.69 0 0 0-.475-1.138 1.517 1.517 0 0 0-1.084-.465c-.41 0-.794.169-1.082.465A1.737 1.737 0 0 0-3.12 0v10.055h-5.366V.029a6.768 6.768 0 0 1 1.011-3.436 6.136 6.136 0 0 1 2.673-2.445 8.417 8.417 0 0 1 3.243-.637 8.416 8.416 0 0 1 3.245.637c1.104.511 2.027 1.364 2.668 2.445.106.165.204.349.301.529.447.89.697 1.89.715 2.907v10.026H0Z" style="fill:#e1002b;fill-opacity:1;fill-rule:nonzero;stroke:none" transform="translate(260.644 292.46)"/><path d="M0 0c-.112.355-.159.74-.154 1.111a3.533 3.533 0 0 0 .479 1.834c.239.409.572.754.961.997l.235.132c.267.141.541.231.833.281.346.063.69.076 1.042.041a4.334 4.334 0 0 0 1.255-.332 5.356 5.356 0 0 0 1.498-.923V8.7a8.012 8.012 0 0 1-3.568.834 8.347 8.347 0 0 1-2.179-.287 7.592 7.592 0 0 1-2.84-1.46 8.245 8.245 0 0 1-2.151-2.638 7.945 7.945 0 0 1-.691-1.807 8.872 8.872 0 0 1-.285-2.216v-.015A8.853 8.853 0 0 1-4.291-3.45C-3.203-5.215-1.532-6.49.402-7.02a8.74 8.74 0 0 1 2.179-.281c.968 0 1.937.175 2.859.523.241.095.481.192.709.312v5.56a5.449 5.449 0 0 0-1.498-.923 4.278 4.278 0 0 0-1.255-.335 3.436 3.436 0 0 0-1.042.046 2.729 2.729 0 0 0-.833.27A3.146 3.146 0 0 0 0 0" style="fill:#e1002b;fill-opacity:1;fill-rule:nonzero;stroke:none" transform="translate(242.48 293.128)"/><path d="M0 0a1.33 1.33 0 0 0-.476-.723 1.522 1.522 0 0 0-.934-.329h-1.155V1.848h.88l.356.002a1.548 1.548 0 0 0 1.167-.683l.125-.253.061-.278A1.57 1.57 0 0 0 0 0m-.571-5.236.738-.009a5.974 5.974 0 0 1 2.289.611 4.959 4.959 0 0 1 2.229 2.05c.23.377.4.79.481 1.234a7.925 7.925 0 0 1 .05 3.335 3.46 3.46 0 0 1-.443 1.266 5.427 5.427 0 0 1-.549.789C3.069 5.333 1.459 6.052-.213 6.033H-7.932V-9.894h5.367V-5.236h.92l.763-.009.044.009z" style="fill:#e1002b;fill-opacity:1;fill-rule:nonzero;stroke:none" transform="translate(198.188 296.173)"/><path d="m0 0 .184.719.394 1.572.338 1.339.466-1.839.274-1.072.108-.448.349-1.38h-2.39Zm.994-4.814h2.053l.445-1.755.036-.166h5.696L7.66-2.023 3.903 9.191.646 9.184l-2.714.007-3.747-11.214-1.572-4.712h5.689l.196.77.287 1.151H.576z" style="fill:#e1002b;fill-opacity:1;fill-rule:nonzero;stroke:none" transform="translate(210.998 293.015)"/><path d="M0 0a10.495 10.495 0 0 1 5.278-1.686 9.554 9.554 0 0 1 2.526.219c.542.117 1.078.3 1.584.546.316.156.602.355.883.577.409.322.769.7 1.063 1.138.305.415.548.886.724 1.367.056.173.118.346.162.507.193.761.248 1.548.16 2.327-.039.29-.096.588-.184.871a3.108 3.108 0 0 1-.703 1.265l-.404.382-.135.118a3.671 3.671 0 0 1-1.183.665l-.282.095-1.17.359-.543.167a8.246 8.246 0 0 0-.939.342l-.241.143a.812.812 0 0 0-.374.439l-.034.137.055.475.274.288.166.068.148.03c.184.04.375.06.574.07.399.006.809-.048 1.194-.164a6.332 6.332 0 0 0 1.849-.896l.174-.124.227.533 1.347 3.223.092.228-.078.038-.034.026c-.721.417-1.482.735-2.273.967a8.703 8.703 0 0 1-2.649.404 7.382 7.382 0 0 1-1.817-.153 5.948 5.948 0 0 1-1.774-.644 5.96 5.96 0 0 1-1.412-1.056A5.247 5.247 0 0 1 1 11.082a4.28 4.28 0 0 1-.142-.559 4.82 4.82 0 0 1 0-2.084 4.313 4.313 0 0 1 .614-1.501c.283-.424.64-.807 1.041-1.103.415-.31.882-.54 1.367-.686l1.88-.577.469-.202.25-.213c.137-.18.19-.43.137-.658l-.154-.356-.029-.03-.168-.158a1.28 1.28 0 0 0-.856-.225l-.395.043a7.034 7.034 0 0 0-.921.239 8.186 8.186 0 0 0-2.395 1.231l-.103.071-.176-.459L.026.265-.066.033Z" style="fill:#e1002b;fill-opacity:1;fill-rule:nonzero;stroke:none" transform="translate(221.935 287.517)"/><path d="M298.079 286.281h5.37v15.925h-5.37z" style="fill:#e1002b;fill-opacity:1;fill-rule:nonzero;stroke:none"/><path d="M0 0c-.112.355-.164.74-.152 1.111a3.567 3.567 0 0 0 .473 1.834c.24.409.574.754.958.997l.244.132c.259.141.532.231.822.281.343.063.7.076 1.05.041a4.253 4.253 0 0 0 1.246-.332 5.525 5.525 0 0 0 1.508-.923V8.7a7.975 7.975 0 0 1-.713.308 7.992 7.992 0 0 1-2.865.526A8.31 8.31 0 0 1 .4 9.247a7.61 7.61 0 0 1-2.839-1.46 8.203 8.203 0 0 1-2.15-2.638 7.75 7.75 0 0 1-.687-1.807 8.435 8.435 0 0 1-.289-2.216v-.015c0-1.617.445-3.198 1.275-4.561C-3.211-5.215-1.527-6.49.4-7.02a8.701 8.701 0 0 1 2.171-.281 8.077 8.077 0 0 1 3.578.835v5.56a5.501 5.501 0 0 0-1.508-.923 4.197 4.197 0 0 0-1.246-.335 3.487 3.487 0 0 0-1.05.046c-.29.044-.563.135-.822.27A3.157 3.157 0 0 0 0 0" style="fill:#e1002b;fill-opacity:1;fill-rule:nonzero;stroke:none" transform="translate(274.254 293.128)"/><path d="M0 0c-.112.355-.163.74-.15 1.115 0 .201.006.401.038.599.066.437.214.854.445 1.231.235.409.557.754.948.997l.238.132c.258.141.538.231.825.281.346.063.698.076 1.047.041a4.26 4.26 0 0 0 1.255-.332 5.443 5.443 0 0 0 1.495-.923V8.7a7.968 7.968 0 0 1-3.566.834 8.26 8.26 0 0 1-2.171-.287 7.572 7.572 0 0 1-2.846-1.46 8.18 8.18 0 0 1-2.151-2.638 8.566 8.566 0 0 1-.696-1.807 9.248 9.248 0 0 1-.272-2.216v-.015A8.712 8.712 0 0 1-4.287-3.45C-3.199-5.215-1.528-6.49.404-7.02a8.648 8.648 0 0 1 2.171-.281c.98 0 1.943.175 2.862.523.241.095.477.192.704.312v5.56a5.419 5.419 0 0 0-1.495-.923 4.205 4.205 0 0 0-1.255-.335 3.473 3.473 0 0 0-1.047.046 2.648 2.648 0 0 0-.825.27A3.136 3.136 0 0 0 0 0" style="fill:#e1002b;fill-opacity:1;fill-rule:nonzero;stroke:none" transform="translate(288.798 293.128)"/><path d="M0 0c-.112.355-.162.74-.147 1.111 0 .205.007.405.035.603.065.437.22.854.439 1.231.239.409.575.754.956.997l.241.132c.265.141.537.231.829.281.339.063.689.076 1.045.041a4.24 4.24 0 0 0 1.248-.332 5.494 5.494 0 0 0 1.502-.923V8.7a8.028 8.028 0 0 1-3.569.834 8.356 8.356 0 0 1-2.175-.287 7.699 7.699 0 0 1-2.842-1.46 8.201 8.201 0 0 1-2.145-2.638 8.199 8.199 0 0 1-.695-1.807 9.053 9.053 0 0 1-.276-2.216v-.015c0-1.617.436-3.198 1.263-4.561C-3.203-5.215-1.529-6.49.404-7.02a8.751 8.751 0 0 1 2.175-.281c.976 0 1.939.175 2.865.523.239.095.478.192.704.312v5.56a5.47 5.47 0 0 0-1.502-.923 4.185 4.185 0 0 0-1.248-.335 3.44 3.44 0 0 0-1.045.046 2.688 2.688 0 0 0-.829.27A3.183 3.183 0 0 0 0 0" style="fill:#e1002b;fill-opacity:1;fill-rule:nonzero;stroke:none" transform="translate(113.154 293.128)"/><path d="m0 0 .182.719.393 1.572.339 1.339.462-1.839.267-1.072.118-.448.347-1.38H-.287Zm.989-4.814h2.056l.443-1.755.041-.166h5.682l-1.56 4.712L3.896 9.191l-3.26-.007-2.707.007-3.757-11.214-1.569-4.712H-1.7l.195.77.29 1.151h1.79z" style="fill:#e1002b;fill-opacity:1;fill-rule:nonzero;stroke:none" transform="translate(129.064 293.015)"/><path d="M0 0v2.042h4.227V6.21h-9.602V-9.717H0v5.552h3.795V0Z" style="fill:#e1002b;fill-opacity:1;fill-rule:nonzero;stroke:none" transform="translate(159.035 295.996)"/><path d="m0 0 2.567-3.369L6.936.369 4.365 3.734Z" style="fill:#e1002b;fill-opacity:1;fill-rule:nonzero;stroke:none" transform="translate(168.935 306.094)"/></g></svg>