<?xml version="1.0" encoding="utf-8"?>
<!-- Generator: Adobe Illustrator 24.0.1, SVG Export Plug-In . SVG Version: 6.00 Build 0)  -->
<svg version="1.1" id="Layer_1" xmlns="http://www.w3.org/2000/svg" xmlns:xlink="http://www.w3.org/1999/xlink" x="0px" y="0px"
	 viewBox="0 0 566.9 566.9" style="enable-background:new 0 0 566.9 566.9;" xml:space="preserve">
<style type="text/css">
	.st0{fill:#FFFFFF;}
	.st1{fill:#E1002B;}
</style>
<path class="st0" d="M173.2,22.2c-33.7,14.3-64.2,34.9-90,60.8c-26,25.8-46.6,56.5-60.9,90.2C7.5,208.1-0.1,245.7,0,283.6
	c0,38.2,7.5,75.2,22.3,110.2c28.8,68,82.9,122.1,150.9,150.8c34.9,14.9,72.4,22.5,110.3,22.4c38.2,0,75.3-7.4,110.4-22.4
	c33.6-14.2,64.2-34.8,90-60.6c25.9-25.9,46.5-56.5,60.9-90.2c14.7-34.9,22.3-72.3,22.2-110.2c0.1-37.9-7.4-75.4-22.2-110.3
	c-14.3-33.7-35-64.3-60.9-90.2c-25.8-25.9-56.4-46.5-90-60.8C358.9,7.5,321.4,0,283.5,0C245.6-0.1,208.1,7.5,173.2,22.2"/>
<path class="st1" d="M401.8,118.2l-17.6,0.1c0,5.2-2,10.3-5.5,14.1c-3.6,4-8.6,6.5-14,6.9H204.5c-12.7,0-24.8,6.5-31.7,17.5
	c-4,6.2-6.1,13.4-6.1,20.8h17.7c-0.1-5.3,2-10.4,5.7-14.1c3.5-3.9,8.3-6.2,13.7-6.7h159.9c13.2,0,25.1-6.8,32.1-17.5
	C399.7,132.9,401.8,125.5,401.8,118.2"/>
<path class="st1" d="M134.5,200.3H73.3c-4.6,0-9,1.7-12.3,4.9c-3.1,3.3-4.8,7.7-4.9,12.2v39c0,4.6,1.9,8.9,4.9,12.1
	c3.3,3.2,7.7,5,12.3,5h43.5v3.4c-0.1,9.4,7.4,17.2,16.9,17.3c0.1,0,0.3,0,0.4,0h88.3c4.7,0,9.1-1.7,12.2-5.1
	c3.4-3.2,5.3-7.6,5.2-12.2v-76.6H134.5 M117,248.2H84c-0.7,0-1.4-0.3-1.8-0.8l-0.7-1.8v-17.7l0.7-1.8l1.8-0.7h33L117,248.2"/>
<g>
	<path class="st1" d="M513.2,238.5c0.1-10.7-4.1-20.8-11.5-28.3c-7.7-7.5-18-11.7-28.7-11.5H310c-21.6-0.3-39.3,17-39.6,38.6
		c0,0.2,0,0.4,0,0.7v70H55.8v69h214.6v77.4h69.5v-77.4h134.1c10.4,0,20.3-4.1,27.8-11.4c7.3-7.3,11.5-17.4,11.5-27.9L513.2,238.5
		 M434.7,267.6c2.4,0,4.7,1,6.3,2.8c1.7,1.6,2.7,3.8,2.8,6.2v22.2c0,2.5-1,4.8-2.8,6.5c-1.7,1.6-3.9,2.6-6.3,2.7h-94.8v-31.3
		c0-2.3,0.9-4.6,2.6-6.2c1.7-1.8,4.1-2.8,6.5-2.8H434.7"/>
</g>
<g>
	<path class="st0" d="M302.3,354.7h-10c-1,0-1.9-0.4-2.5-1.1c-0.6-0.4-0.9-1.3-0.9-2.4v-32.2h-12.4v39.6c0,1.8,0.6,3.4,1.9,4.6
		c1.2,1.4,3,2.1,4.8,2.1h29.3c1.8,0,3.5-0.7,4.8-2.1c1.2-1.2,1.9-2.8,1.9-4.6v-39.6H307v32.2c0,1.1-0.5,2-1,2.4
		c-0.8,0.8-1.4,1.1-2.4,1.1H302.3"/>
</g>
<g>
	<path class="st0" d="M255.7,351.3c0,0.9-0.4,1.8-1.1,2.5c-0.6,0.6-1.4,0.9-2.3,0.9h-12.4c-0.9,0-1.8-0.4-2.4-1.1
		c-0.6-0.4-1-1.3-1-2.5v-18.2c0.1-1,0.5-1.8,1.3-2.2c0.5-0.7,1.3-1.1,2.1-1.1h12.4c1.1,0,1.8,0.3,2.4,1.1c0.8,0.6,1.1,1.5,1.1,2.8
		l12.4,0.3v-7.9c0-1.9-0.8-3.7-2.2-5c-1.3-1.2-2.9-1.9-4.7-1.9h-30.1c-1.9,0.1-3.6,0.7-5,1.9c-1.2,1.4-1.8,3.2-1.8,5v32.7
		c0,1.8,0.6,3.4,1.8,4.6c1.3,1.4,3.1,2.2,5,2.1h30.4c1.7,0,3.6-0.9,4.5-2.2c1.3-1.1,2.1-3,2.1-4.7v-7.7L255.7,351.3"/>
</g>
<g>
	<path class="st0" d="M200.9,347.3c0.7,0.1,1.4,0.4,2,0.9c0.5,0.3,0.9,1.1,0.7,1.9v2.2l-0.7,1.6l-2,0.9h-29.2v10.6h37.6
		c1.8,0,3.4-0.8,4.8-2.2c1.3-1.2,2-2.9,2-4.6v-14.9c-0.1-1.8-0.8-3.6-2-4.9c-1.3-1.1-3-1.8-4.8-1.8H187c-0.7,0-1.4-0.4-1.9-1
		c-0.7-0.4-1.1-1.1-1-1.9v-1.9c0.3-0.6,0.3-1.3,1-1.9c0.5-0.5,1.2-0.8,1.9-0.8h29.3v-10.7h-37.5c-1.7,0-3.4,0.7-4.6,1.9
		c-1.5,1.3-2.3,3.1-2.3,5v14.9c0,1.7,0.8,3.5,2,4.8c1.3,1.2,3,1.8,4.7,1.8H200.9"/>
</g>
<path class="st0" d="M134.7,318.9H132l-1.6,4l-17.3,42.4h12.4l2.9-7.3h20.7l3,7.3h12.3l-17.2-42.4l-1.7-4H134.7 M132.4,348.2
	l5.6-13.4l0.7-2.3l6.3,15.7H132.4z"/>
<g>
	<path class="st0" d="M112.7,325.8c0-1.9-0.4-3.7-1.7-4.8c-1.3-1.2-3-2-4.8-2.2H71v17.9H55.8v9.4H71v19.1h12.4v-19.1h22.8
		c1.9,0,3.6-0.5,4.8-1.7c1.3-1.3,1.9-3.1,1.7-4.9V325.8 M97.8,328.7l1.8,0.6c0.6,0.7,0.9,1.4,0.9,1.9v2.6c0,0.8-0.3,1.3-0.9,1.9
		c-0.2,0.5-1.2,1-1.8,1H83.4v-8.1H97.8"/>
</g>
<path class="st0" d="M432.1,365.3h12.4v-46.4h-12.4V365.3z"/>
<g>
	<path class="st0" d="M359.7,351.3c-0.1,0.9-0.5,1.8-1.1,2.5c-0.5,0.7-1.4,0.9-2.4,0.9H344c-1.1,0-1.9-0.3-2.5-1.1
		c-0.6-0.4-0.9-1.3-0.9-2.5v-18.2c0-1,0.5-1.8,0.9-2.2c0.7-0.7,1.6-1.1,2.6-1.1h12.1c0.9,0,1.8,0.3,2.4,1.1c0.8,0.4,1.2,1.5,1.1,2.8
		l12.3,0.3v-7.9c0-1.9-0.7-3.7-2-5c-1.3-1.2-3-1.8-4.8-1.9h-30.4c-1.7,0.1-3.3,0.8-4.5,1.9c-1.4,1.3-2.2,3.1-2.2,5v32.7
		c0,1.8,1,3.4,2.2,4.6c1.1,1.3,2.8,2.1,4.5,2.1h30.6c1.9,0,3.6-0.9,4.8-2.2c1.2-1.3,1.9-3,1.9-4.7v-7.7L359.7,351.3"/>
</g>
<g>
	<path class="st0" d="M411.2,351.3c0,0.9-0.4,1.8-1.1,2.5c-0.3,0.7-1.3,0.9-2.3,0.9h-12.2c-0.9,0-1.8-0.3-2.3-1.1
		c-0.7-0.4-1.1-1.3-1.1-2.5v-18.2c0-1,0.4-1.8,1.1-2.2c0.5-0.8,1.4-1.1,2.3-1.1h12.2c1,0,2,0.3,2.3,1.1c0.9,0.6,1.1,1.5,1.1,2.8
		l12.5,0.3v-7.9c-0.1-1.9-0.8-3.7-2.1-5c-1.4-1.2-3.1-1.9-4.9-1.9h-30.1c-1.8,0.1-3.5,0.7-4.8,1.9c-1.3,1.3-2,3.1-2,5v32.7
		c0,1.8,0.7,3.4,2,4.6c1.2,1.4,2.9,2.2,4.8,2.1h30.5c1.8-0.2,3.5-0.9,4.8-2.2c1.2-1.3,1.9-3,2-4.7v-7.7L411.2,351.3"/>
</g>
<path class="st0" d="M134.5,206.5l-61.3,0c-2.9,0-5.7,1.1-7.8,3.1c-2.1,2.1-3.2,4.9-3.2,7.9v38.9c0,6.1,4.9,11,11,11c0,0,0,0,0,0
	h49.5v9.5c0,3,1.2,5.9,3.3,7.9c2.1,2.2,5,3.5,8,3.4h88.3c3,0,5.9-1.2,7.8-3.4c2.2-2.1,3.4-4.9,3.4-7.9v-70.5H134.5 M117,248.2H84
	c-0.7,0-1.4-0.3-1.8-0.8l-0.7-1.8v-17.7l0.7-1.8l1.8-0.7h33L117,248.2"/>
<path class="st1" d="M84,219.4c-2.3-0.1-4.5,0.8-6.1,2.4c-1.7,1.6-2.5,3.8-2.3,6.1v17.7c0,2.4,0.8,4.7,2.3,6.2
	c1.6,1.7,3.8,2.6,6.1,2.5h38.9l0.2-34.9H84 M117,248.2H84c-0.7,0-1.4-0.3-1.8-0.8l-0.7-1.8v-17.7l0.7-1.8l1.8-0.7h33V248.2"/>
</svg>
