<svg xmlns="http://www.w3.org/2000/svg" width="205.09744" height="26.380199" fill="none" viewBox="0 0 205.09744 26.380199"><mask id="a" width="740" height="278" x="30" y="123" maskUnits="userSpaceOnUse"><path fill="#c4c4c4" d="M30.77 123.846H769.23v276.767H30.77z"/></mask><g fill="#00d4da" clip-path="url(#b)" transform="translate(-41.973 -44.102)"><path d="M130.508 66.987c-6.584 0-11.571-4.915-11.571-11.437 0-6.522 4.969-11.438 11.571-11.438 3.916 0 7.519 1.858 9.638 4.968l.225.331-3.104 1.925-.2-.31c-1.438-2.173-3.826-3.42-6.553-3.42-4.493 0-7.883 3.415-7.883 7.944s3.392 7.944 7.883 7.944c2.727 0 5.115-1.245 6.553-3.42l.2-.308 3.104 1.923-.225.333c-2.119 3.1-5.722 4.966-9.638 4.966zM158.85 49.215c-1.584-1.819-3.956-2.777-6.907-2.777-5.486 0-9.624 4.326-9.624 10.063 0 5.738 4.138 10.063 9.624 10.063 2.943 0 5.323-.957 6.907-2.777v2.338h3.779V46.877h-3.779zm-6.322 13.682c-3.625 0-6.36-2.749-6.36-6.396s2.735-6.396 6.36-6.396c3.625 0 6.322 2.75 6.322 6.396 0 3.647-2.717 6.396-6.322 6.396zM177.489 46.438c-2.634 0-4.944.846-6.384 2.333v-1.894h-3.779v19.248h3.779V55.37c0-3.192 2.108-5.265 5.372-5.265 3.111 0 5.12 2.037 5.12 5.187v10.83h3.776V54.31c-.01-4.708-3.174-7.872-7.884-7.872zM196.975 61.228l-6.065-14.352h-4.313l8.455 19.25h3.736l8.455-19.25h-4.201zM223.953 49.214c-1.582-1.818-3.963-2.775-6.907-2.775-5.486 0-9.624 4.325-9.624 10.062 0 5.738 4.138 10.063 9.624 10.063 2.944 0 5.325-.96 6.907-2.777v2.338h3.778V46.877h-3.778zm0 7.287c0 3.647-2.718 6.396-6.323 6.396-3.605 0-6.358-2.749-6.358-6.396 0-3.646 2.733-6.396 6.358-6.396 3.625 0 6.323 2.75 6.323 6.396zM240.02 54.618c-2.394-.564-4.473-1.053-4.473-2.683 0-1.512 1.871-2.194 3.725-2.194a7.05 7.05 0 0 1 4.947 1.97l.264.254 2.194-2.889-.221-.2c-1.363-1.234-3.723-2.708-7.23-2.708-3.791 0-7.635 1.839-7.635 5.949 0 4.31 3.942 5.296 7.11 6.088 2.262.541 4.399 1.052 4.399 2.686 0 1.442-1.608 2.374-4.098 2.374-2.258 0-4.225-.798-5.693-2.3l-.26-.268-2.206 2.851.199.2c2.081 1.995 4.918 3.088 7.98 3.088 4.814 0 8.048-2.51 8.048-6.249.024-4.293-3.898-5.227-7.05-5.969zM84.933 46.86h-3.99v19.28h3.99zM110.483 46.86h-3.99v19.28h3.99zM66.117 44.284a9.363 9.363 0 0 0-1.832-.182 9.632 9.632 0 0 0-6.256 2.315 8.007 8.007 0 0 0-2.993-1.198 9.817 9.817 0 0 0-1.624-.153h-.11c-4.337 0-8.355 2.793-9.999 6.94-1.54 3.89-1.741 8.603-.614 14.409l.022.117 3.591-.696-.022-.118c-.997-5.169-.868-9.099.427-12.369 1.08-2.729 3.79-4.634 6.673-4.634.342.003.682.035 1.018.095a4.39 4.39 0 0 1 1.33.473 13.11 13.11 0 0 0-1.472 4.371 15.269 15.269 0 0 0 .268 6c.23.931.664 2.288 1.73 3.315a4.31 4.31 0 0 0 2.952 1.22c.6.002 1.19-.144 1.72-.426 1.268-.686 2.015-2.029 2.216-3.99a17.976 17.976 0 0 0-1.3-8.547c-.331-.779-.738-1.523-1.216-2.222a6.074 6.074 0 0 1 3.681-1.25c.366-.001.732.034 1.091.105 2.793.556 5.088 2.406 6.454 5.203 2.133 4.363 1.77 10.224-.965 15.679l-.054.105 3.26 1.636.054-.105c3.243-6.464 3.61-13.537.983-18.917-1.877-3.84-5.08-6.39-9.013-7.176zm-8.272 9.935c.101-.653.266-1.294.491-1.915a14.024 14.024 0 0 1 1.17 7.086c-.093.892-.304 1.137-.308 1.15a.723.723 0 0 1-.423-.2c-.297-.288-.527-.786-.722-1.572a11.52 11.52 0 0 1-.208-4.549ZM97.222 47.115c-1.259.2-2.885.535-4.28 1.369-1.543.925-2.393 1.74-3.112 2.992-.971 1.718-.971 3.53-.961 5.137v9.539h3.834v-9.427c0-1.502.074-2.478.545-3.326.966-1.735 3.012-2.252 4.69-2.507a22.93 22.93 0 0 1 3.418-.2h1.448v-3.83h-1.396c-1.4-.025-2.8.06-4.186.253z"/></g><defs><clipPath id="b"><path fill="#fff" d="M41.967 44.102h205.128v26.383H41.967z"/></clipPath></defs></svg>