<svg xmlns="http://www.w3.org/2000/svg" xml:space="preserve" width="441.66718" height="108.4976" viewBox="0 0 441.66717 108.49759"><defs><clipPath id="a" clipPathUnits="userSpaceOnUse"><path d="M0 841.89h595.276V0H0Z"/></clipPath></defs><path d="M0 0v-53.95l13.05-12.166 168.4-.078 13.05-12.635 134.25.77v52.149L315.7-13.04l-132.588-.695L170.899 0Z" style="fill:#fff;fill-opacity:1;fill-rule:nonzero;stroke:none" transform="matrix(1.33333 0 0 -1.33333 2.25 1.725)"/><path d="M447.713 444.556H316.375v52.459h131.338z" style="fill:#fabe00;fill-opacity:1;fill-rule:nonzero;stroke:none" transform="matrix(1.33333 0 0 -1.33333 -176.017 682.725)"/><path d="M0 0v-9.641L-7.2 0h-6.75v-22.2h6.75v10.933L0-22.2h6.75V0Z" style="fill:#000;fill-opacity:1;fill-rule:nonzero;stroke:none" transform="matrix(1.33333 0 0 -1.33333 38.517 22.296)"/><g clip-path="url(#a)" transform="matrix(1.33333 0 0 -1.33333 -176.017 682.725)"><path d="M0 0a4.425 4.425 0 1 0 0 8.85A4.425 4.425 0 0 0 0 0m0 14.16c-5.376 0-9.735-4.359-9.735-9.735C-9.735-.952-5.376-5.31 0-5.31c5.376 0 9.735 4.358 9.735 9.735 0 5.376-4.359 9.735-9.735 9.735" style="fill:#000;fill-opacity:1;fill-rule:nonzero;stroke:none" transform="translate(179.65 477.997)"/><path d="M0 0h-4.659v4.5h4.565a2.296 2.296 0 0 0 2.297-2.297A2.203 2.203 0 0 0 0 0m-.094 14.25a2.296 2.296 0 0 0 2.297-2.297A2.203 2.203 0 0 0 0 9.75h-4.659v4.5zm6.417-7.125C7.855 8.266 8.841 10.023 8.841 12c0 3.438-2.972 6.225-6.638 6.225h-12.862v-22.2H2.203c3.666 0 6.638 2.787 6.638 6.225 0 1.977-.986 3.735-2.518 4.875" style="fill:#000;fill-opacity:1;fill-rule:nonzero;stroke:none" transform="translate(207.56 477.097)"/><path d="M0 0c-.534-.183-2.082-.75-3.263-1.185V0H-9v-17.7h5.737v11.019l1.801 1.056C.45-4.5 3.6-4.837 3.6-4.837V0S1.575.54 0 0" style="fill:#000;fill-opacity:1;fill-rule:nonzero;stroke:none" transform="translate(228.063 490.822)"/><path d="M0 0s-1.042-1.687-3.108-2.25C-5.175-2.813-6.75-1.575-6.3.562-5.85 2.7 0 1.35 0 1.35Zm.562 11.715c-4.162 1.927-10.35-.24-10.35-.24V6.638s2.25 1.702 5.963 1.188c3.712-.514 3.6-2.951 3.6-2.951C-10.688 7.5-13.613 0-10.35-4.5S0-4.612 0-4.612V-6.66h5.4V6.187S4.725 9.788.562 11.715" style="fill:#000;fill-opacity:1;fill-rule:nonzero;stroke:none" transform="translate(243.25 479.347)"/><path d="M0 0v1.117h-.073c-.231 2.11-1.201 6.093-5.252 6.75-3.861.627-5.505-1.431-6.15-2.743v2.218h-6.3v-17.699h6.3V1.185c.417.851 1.242 1.898 2.775 1.807 2.55-.15 2.625-1.5 2.625-3.187v-10.162H0V0" style="fill:#000;fill-opacity:1;fill-rule:nonzero;stroke:none" transform="translate(268.9 483.48)"/><path d="M0 0c-2.154 0-3.9 1.875-3.9 4.187C-3.9 6.5-2.154 8.374 0 8.374S3.9 6.5 3.9 4.187C3.9 1.875 2.154 0 0 0m4.2 19.125v-7.272a9.632 9.632 0 0 1-4.95 1.362c-5.178 0-9.375-4.016-9.375-8.97 0-4.954 4.197-8.97 9.375-8.97 1.82 0 3.512.504 4.95 1.363v-1.363h5.775v23.85z" style="fill:#000;fill-opacity:1;fill-rule:nonzero;stroke:none" transform="translate(280.675 477.847)"/><path d="M134.513 456.8h-2.5V512h2.5z" style="fill:#000;fill-opacity:1;fill-rule:nonzero;stroke:none"/><path d="m0 0-2.054-1.922-13.7 13.2 2.215 1.882z" style="fill:#000;fill-opacity:1;fill-rule:nonzero;stroke:none" transform="translate(147.767 445.228)"/><path d="m0 0-2.107-2.02-26.294 25.795 2.214 1.881z" style="fill:#000;fill-opacity:1;fill-rule:nonzero;stroke:none" transform="translate(329.87 432.69)"/><path d="m0 0-2.054-1.922-13.7 13.735 2.215 1.881z" style="fill:#000;fill-opacity:1;fill-rule:nonzero;stroke:none" transform="translate(317.803 498.35)"/><path d="m0 0-2.054-1.921-13.266 13.924 2.215 1.882z" style="fill:#000;fill-opacity:1;fill-rule:nonzero;stroke:none" transform="translate(463.263 484.84)"/><path d="m0 0-2.131-1.85-13.189 12.222 2.215 1.88z" style="fill:#000;fill-opacity:1;fill-rule:nonzero;stroke:none" transform="translate(463.263 433.171)"/><path d="M132.013 459.006h172.15v-2.5h-172.15zM145.713 445.962h304.5v-2.657h-304.5zM132.013 512h172.15v-2.5h-172.15zM314.713 498.725h135.5v-2.5h-135.5zM327.763 433.171h135.5v-2.5h-135.5z" style="fill:#000;fill-opacity:1;fill-rule:nonzero;stroke:none"/><path d="M304.163 456.8h-2.5V512h2.5zM317.213 444.556h-2.5v54.169h2.5zM450.213 444.556h-2.5v54.169h2.5zM463.263 430.671h-2.5v54.169h2.5z" style="fill:#000;fill-opacity:1;fill-rule:nonzero;stroke:none"/><path d="M0 0c-.533-.183-2.081-.75-3.263-1.185V0H-9v-17.7h5.737v11.019l1.801 1.056c1.912 1.125 5.063.788 5.063.788V0S1.575.54 0 0" style="fill:#000;fill-opacity:1;fill-rule:nonzero;stroke:none" transform="translate(379.263 479.392)"/><path d="M0 0c-.534-.183-2.082-.75-3.263-1.185V0H-9v-17.7h5.737v11.019l1.8 1.056C.449-4.5 3.6-4.837 3.6-4.837V0S1.574.54 0 0" style="fill:#000;fill-opacity:1;fill-rule:nonzero;stroke:none" transform="translate(432.926 479.392)"/><path d="M0 0v-1.117h.072c.232-2.11 1.202-6.093 5.253-6.75 3.861-.627 5.505 1.431 6.15 2.743v-2.218h6.299v17.7h-6.299V-1.185c-.417-.851-1.242-1.898-2.775-1.807-2.551.15-2.625 1.5-2.625 3.187v10.163H0V0" style="fill:#000;fill-opacity:1;fill-rule:nonzero;stroke:none" transform="translate(350.126 469.675)"/><path d="M0 0h-4.659v4.5h4.565a2.297 2.297 0 0 0 2.297-2.297A2.203 2.203 0 0 0 0 0m-.094 14.25a2.297 2.297 0 0 0 2.297-2.297A2.203 2.203 0 0 0 0 9.75h-4.659v4.5zm6.417-7.125C7.854 8.265 8.841 10.023 8.841 12c0 3.438-2.972 6.225-6.638 6.225h-12.862v-22.2H2.203c3.666 0 6.638 2.787 6.638 6.225 0 1.977-.987 3.734-2.518 4.875" style="fill:#000;fill-opacity:1;fill-rule:nonzero;stroke:none" transform="translate(339.804 465.668)"/><path d="M0 0c-2.154 0-3.9 1.875-3.9 4.187 0 2.312 1.746 4.187 3.9 4.187 2.153 0 3.899-1.875 3.899-4.187C3.899 1.875 2.153 0 0 0m4.199 13.026v-1.173A9.638 9.638 0 0 1-.75 13.215c-5.178 0-9.375-4.016-9.375-8.97 0-4.954 4.197-8.97 9.375-8.97 1.819 0 3.512.504 4.949 1.362v-.811S4.162-6.761-.676-6.761c-4.837 0-7.087 1.294-7.087 1.294v-5.569S8.438-16.605 9.886-4.725l.089 17.751z" style="fill:#000;fill-opacity:1;fill-rule:nonzero;stroke:none" transform="translate(392.988 467.096)"/><path d="M0 0c0 1.646 1.763 2.981 3.938 2.981 2.173 0 3.937-1.335 3.937-2.981Zm12.543 0c0 3.79-3.853 6.862-8.605 6.862-4.548 0-8.307-2.756-8.815-6.431 0 0-.955-6.551 2.905-9.615 5.405-4.29 14.009-.547 14.009-.547v4.779S9.281-6.706 6.019-6.649C1.318-6.697.213-4.063.168-3.244l12.375-.019z" style="fill:#000;fill-opacity:1;fill-rule:nonzero;stroke:none" transform="translate(409.582 473.216)"/></g></svg>