<?xml version="1.0" encoding="utf-8"?>
<!-- Generator: Adobe Illustrator 24.0.1, SVG Export Plug-In . SVG Version: 6.00 Build 0)  -->
<svg version="1.1" id="Layer_1" xmlns="http://www.w3.org/2000/svg" xmlns:xlink="http://www.w3.org/1999/xlink" x="0px" y="0px"
	 viewBox="0 0 261.1 32" style="enable-background:new 0 0 261.1 32;" xml:space="preserve">
<style type="text/css">
	.st0{fill:#FFFFFF;}
	.st1{clip-path:url(#SVGID_2_);}
</style>
<path class="st0" d="M51.4,18.4v-2.7h5.6v-5.6H44.3v21.2h7.2V24h5.1v-5.6H51.4z"/>
<path class="st0" d="M85.4,25.8v-2.5h5.1v-5.2h-5.1v-2.4h5.6v-5.6H78.3v21.2h13.1v-5.6H85.4z"/>
<g>
	<defs>
		<rect id="SVGID_1_" x="-143.5" y="-380.6" width="559.4" height="793.7"/>
	</defs>
	<clipPath id="SVGID_2_">
		<use xlink:href="#SVGID_1_"  style="overflow:visible;"/>
	</clipPath>
	<g transform="matrix(1.33333 0 0 -1.33333 -143.466 413.104)" class="st1">
		<path class="st0" d="M260.6,292.5c0-0.4-0.2-0.8-0.5-1.1c-0.3-0.3-0.7-0.5-1.1-0.5c-0.4,0-0.8,0.2-1.1,0.5
			c-0.3,0.3-0.5,0.7-0.5,1.1v10.1h-5.4v-10c0-1.2,0.4-2.4,1-3.4c0.6-1.1,1.6-1.9,2.7-2.4c1-0.4,2.1-0.6,3.2-0.6
			c1.1,0,2.2,0.2,3.2,0.6c1.1,0.5,2,1.4,2.7,2.4c0.1,0.2,0.2,0.3,0.3,0.5c0.4,0.9,0.7,1.9,0.7,2.9v10h-5.4V292.5z"/>
		<path class="st0" d="M242.5,293.1c-0.1,0.4-0.2,0.7-0.2,1.1c0,0.6,0.2,1.3,0.5,1.8c0.2,0.4,0.6,0.8,1,1l0.2,0.1
			c0.3,0.1,0.5,0.2,0.8,0.3c0.3,0.1,0.7,0.1,1,0c0.4,0,0.9-0.2,1.3-0.3c0.5-0.2,1.1-0.5,1.5-0.9v5.6c-1.1,0.5-2.3,0.8-3.6,0.8
			c-0.7,0-1.5-0.1-2.2-0.3c-1-0.3-2-0.8-2.8-1.5c-0.9-0.7-1.6-1.6-2.2-2.6c-0.3-0.6-0.5-1.2-0.7-1.8c-0.2-0.7-0.3-1.5-0.3-2.2v0
			c0-1.6,0.4-3.2,1.3-4.6c1.1-1.8,2.8-3,4.7-3.6c0.7-0.2,1.4-0.3,2.2-0.3c1,0,1.9,0.2,2.9,0.5c0.2,0.1,0.5,0.2,0.7,0.3v5.6
			c-0.4-0.4-1-0.7-1.5-0.9c-0.4-0.2-0.8-0.3-1.3-0.3c-0.3,0-0.7,0-1,0c-0.3,0-0.6,0.1-0.8,0.3C243.3,291.7,242.7,292.3,242.5,293.1"
			/>
		<path class="st0" d="M198.2,296.2c-0.1-0.3-0.2-0.5-0.5-0.7c-0.3-0.2-0.6-0.3-0.9-0.3h-1.2v2.9h0.9l0.4,0c0.5,0,0.9-0.3,1.2-0.7
			l0.1-0.3l0.1-0.3C198.2,296.6,198.2,296.4,198.2,296.2 M197.6,290.9l0.7,0c0.8,0,1.6,0.3,2.3,0.6c0.9,0.4,1.7,1.2,2.2,2.1
			c0.2,0.4,0.4,0.8,0.5,1.2c0.3,1.1,0.3,2.2,0.1,3.3c-0.1,0.4-0.2,0.9-0.4,1.3c-0.2,0.3-0.3,0.5-0.5,0.8c-1.2,1.3-2.8,2-4.4,2h-7.7
			v-15.9h5.4v4.7h0.9l0.8,0l0,0H197.6z"/>
		<path class="st0" d="M211,293l0.2,0.7l0.4,1.6l0.3,1.3l0.5-1.8l0.3-1.1l0.1-0.4l0.3-1.4h-2.4L211,293z M212,288.2h2.1l0.4-1.8
			l0-0.2h5.7l-1.6,4.7l-3.8,11.2l-3.3,0l-2.7,0l-3.7-11.2l-1.6-4.7h5.7l0.2,0.8l0.3,1.2h1.8H212z"/>
		<path class="st0" d="M221.9,287.5c1.6-1,3.4-1.6,5.3-1.7c0.8,0,1.7,0,2.5,0.2c0.5,0.1,1.1,0.3,1.6,0.5c0.3,0.2,0.6,0.4,0.9,0.6
			c0.4,0.3,0.8,0.7,1.1,1.1c0.3,0.4,0.5,0.9,0.7,1.4c0.1,0.2,0.1,0.3,0.2,0.5c0.2,0.8,0.2,1.5,0.2,2.3c0,0.3-0.1,0.6-0.2,0.9
			c-0.1,0.5-0.4,0.9-0.7,1.3L233,295l-0.1,0.1c-0.3,0.3-0.8,0.5-1.2,0.7l-0.3,0.1l-1.2,0.4l-0.5,0.2c-0.3,0.1-0.6,0.2-0.9,0.3
			l-0.2,0.1c-0.2,0.1-0.3,0.3-0.4,0.4l0,0.1l0.1,0.5l0.3,0.3l0.2,0.1l0.1,0c0.2,0,0.4,0.1,0.6,0.1c0.4,0,0.8,0,1.2-0.2
			c0.7-0.2,1.3-0.5,1.8-0.9l0.2-0.1l0.2,0.5l1.3,3.2l0.1,0.2l-0.1,0l0,0c-0.7,0.4-1.5,0.7-2.3,1c-0.9,0.3-1.8,0.4-2.6,0.4
			c-0.6,0-1.2,0-1.8-0.2c-0.6-0.1-1.2-0.3-1.8-0.6c-0.5-0.3-1-0.6-1.4-1.1c-0.6-0.6-1-1.4-1.3-2.2c-0.1-0.2-0.1-0.4-0.1-0.6
			c-0.2-0.7-0.2-1.4,0-2.1c0.1-0.5,0.3-1,0.6-1.5c0.3-0.4,0.6-0.8,1-1.1c0.4-0.3,0.9-0.5,1.4-0.7l1.9-0.6l0.5-0.2l0.3-0.2
			c0.1-0.2,0.2-0.4,0.1-0.7l-0.2-0.4l0,0l-0.2-0.2c-0.2-0.2-0.6-0.3-0.9-0.2l-0.4,0c-0.3,0.1-0.6,0.1-0.9,0.2
			c-0.9,0.3-1.7,0.7-2.4,1.2l-0.1,0.1l-0.2-0.5l-1.4-3.6L221.9,287.5L221.9,287.5z"/>
		<path class="st0" d="M298.1,286.3h5.4v15.9h-5.4V286.3z"/>
		<path class="st0" d="M274.3,293.1c-0.1,0.4-0.2,0.7-0.2,1.1c0,0.6,0.2,1.3,0.5,1.8c0.2,0.4,0.6,0.8,1,1l0.2,0.1
			c0.3,0.1,0.5,0.2,0.8,0.3c0.3,0.1,0.7,0.1,1.1,0c0.4,0,0.8-0.2,1.2-0.3c0.5-0.2,1.1-0.5,1.5-0.9v5.6c-0.2,0.1-0.5,0.2-0.7,0.3
			c-0.9,0.3-1.9,0.5-2.9,0.5c-0.7,0-1.5-0.1-2.2-0.3c-1-0.3-2-0.8-2.8-1.5c-0.9-0.7-1.6-1.6-2.1-2.6c-0.3-0.6-0.5-1.2-0.7-1.8
			c-0.2-0.7-0.3-1.5-0.3-2.2v0c0-1.6,0.4-3.2,1.3-4.6c1.1-1.8,2.8-3,4.7-3.6c0.7-0.2,1.4-0.3,2.2-0.3c1.2,0,2.5,0.3,3.6,0.8v5.6
			c-0.4-0.4-1-0.7-1.5-0.9c-0.4-0.2-0.8-0.3-1.2-0.3c-0.4,0-0.7,0-1.1,0c-0.3,0-0.6,0.1-0.8,0.3C275,291.7,274.5,292.3,274.3,293.1"
			/>
		<path class="st0" d="M288.8,293.1c-0.1,0.4-0.2,0.7-0.1,1.1c0,0.2,0,0.4,0,0.6c0.1,0.4,0.2,0.9,0.4,1.2c0.2,0.4,0.6,0.8,0.9,1
			l0.2,0.1c0.3,0.1,0.5,0.2,0.8,0.3c0.3,0.1,0.7,0.1,1,0c0.4,0,0.9-0.2,1.3-0.3c0.5-0.2,1-0.5,1.5-0.9v5.6c-1.1,0.6-2.3,0.8-3.6,0.8
			c-0.7,0-1.5-0.1-2.2-0.3c-1-0.3-2-0.8-2.8-1.5c-0.9-0.7-1.6-1.6-2.2-2.6c-0.3-0.6-0.5-1.2-0.7-1.8c-0.2-0.7-0.3-1.5-0.3-2.2v0
			c0-1.6,0.4-3.2,1.3-4.6c1.1-1.8,2.8-3,4.7-3.6c0.7-0.2,1.4-0.3,2.2-0.3c1,0,1.9,0.2,2.9,0.5c0.2,0.1,0.5,0.2,0.7,0.3v5.6
			c-0.4-0.4-0.9-0.7-1.5-0.9c-0.4-0.2-0.8-0.3-1.3-0.3c-0.3,0-0.7,0-1,0c-0.3,0-0.6,0.1-0.8,0.3C289.6,291.7,289,292.3,288.8,293.1"
			/>
		<path class="st0" d="M113.2,293.1c-0.1,0.4-0.2,0.7-0.1,1.1c0,0.2,0,0.4,0,0.6c0.1,0.4,0.2,0.9,0.4,1.2c0.2,0.4,0.6,0.8,1,1
			l0.2,0.1c0.3,0.1,0.5,0.2,0.8,0.3c0.3,0.1,0.7,0.1,1,0c0.4,0,0.9-0.2,1.2-0.3c0.5-0.2,1.1-0.5,1.5-0.9v5.6
			c-1.1,0.5-2.3,0.8-3.6,0.8c-0.7,0-1.5-0.1-2.2-0.3c-1-0.3-2-0.8-2.8-1.5c-0.9-0.7-1.6-1.6-2.1-2.6c-0.3-0.6-0.5-1.2-0.7-1.8
			c-0.2-0.7-0.3-1.5-0.3-2.2v0c0-1.6,0.4-3.2,1.3-4.6c1.1-1.8,2.8-3,4.7-3.6c0.7-0.2,1.4-0.3,2.2-0.3c1,0,1.9,0.2,2.9,0.5
			c0.2,0.1,0.5,0.2,0.7,0.3v5.6c-0.4-0.4-1-0.7-1.5-0.9c-0.4-0.2-0.8-0.3-1.2-0.3c-0.3,0-0.7,0-1,0c-0.3,0-0.6,0.1-0.8,0.3
			C113.9,291.7,113.4,292.3,113.2,293.1"/>
		<path class="st0" d="M129.1,293l0.2,0.7l0.4,1.6l0.3,1.3l0.5-1.8l0.3-1.1l0.1-0.4l0.3-1.4h-2.4L129.1,293z M130.1,288.2h2.1
			l0.4-1.8l0-0.2h5.7l-1.6,4.7l-3.8,11.2l-3.3,0l-2.7,0l-3.8-11.2l-1.6-4.7h5.7l0.2,0.8l0.3,1.2h1.8H130.1z"/>
		<path class="st0" d="M159,296v2h4.2v4.2h-9.6v-15.9h5.4v5.6h3.8v4.2H159z"/>
		<path class="st0" d="M168.9,306.1l2.6-3.4l4.4,3.7l-2.6,3.4L168.9,306.1z"/>
	</g>
</g>
</svg>
