<?xml version="1.0" encoding="utf-8"?>
<!-- Generator: Adobe Illustrator 24.0.1, SVG Export Plug-In . SVG Version: 6.00 Build 0)  -->
<svg version="1.1" id="Layer_1" xmlns="http://www.w3.org/2000/svg" xmlns:xlink="http://www.w3.org/1999/xlink" x="0px" y="0px"
	 viewBox="0 0 466 108" style="enable-background:new 0 0 466 108;" xml:space="preserve">
<style type="text/css">
	.st0{fill-rule:evenodd;clip-rule:evenodd;fill:url(#SVGID_1_);}
	.st1{fill-rule:evenodd;clip-rule:evenodd;fill:url(#SVGID_2_);}
	.st2{fill-rule:evenodd;clip-rule:evenodd;fill:url(#SVGID_3_);}
	.st3{fill-rule:evenodd;clip-rule:evenodd;fill:url(#SVGID_4_);}
	.st4{fill-rule:evenodd;clip-rule:evenodd;fill:#FFFFFF;}
</style>
<linearGradient id="SVGID_1_" gradientUnits="userSpaceOnUse" x1="7.900000e-02" y1="47.077" x2="46.364" y2="47.077" gradientTransform="matrix(1 0 0 -1 0 110)">
	<stop  offset="0" style="stop-color:#E95328"/>
	<stop  offset="1" style="stop-color:#E95328"/>
</linearGradient>
<path class="st0" d="M0.1,22.4L4.2,47c0.6-1.2,1.9-1,3.2-0.5c1.1,0.5,2.4,1.3,4,2.8l1.7,7.1c-1.5-1.7-2.7-2.7-3.8-3.3
	c-0.6-0.3-1.8-0.6-1.4,1.1c0.8,3.5,6.6,6.8,8.6,13.7c1.7,6.8-1.5,6.7-3.8,5.3c-1.1-0.7-2-1.4-2.9-2.6l-2.8-7.5
	C8,65,8.9,66.2,10.9,68c0.9,0.8,2.6,1.9,1.7-1.2c-1.4-3.1-4.4-4.4-6.6-9.4l3.2,19.2l37.2,26.8V61.9L0.1,22.4z M21.3,58.1l-2.9-1.3
	l2.1,7.3l-4.2-2.1L9.8,40.7l4.1,1.5l2.6,8.3l2.9,1.2l-2.2-8.3l4.6,1.7l6,22.6l-4.6-2.3C23.3,65.5,21.3,58.1,21.3,58.1z M45.1,82.7
	L40.2,80l-4-14.1l0,0l0.3,12.1l-3.8-2.2c1,1.9,1.7,4.2,2.2,7c1.1,6.3-0.3,8.4-3.3,6.7c-2.8-1.6-4.9-5.4-6-11.1c-1-5.6,0-8.2,2.8-7.1
	c1.3,0.5,2.5,1.6,3.6,3.2l-5-18.8l3.4,1.3l3.2,13l0,0L33.3,58l4.1,1.5l3.9,14.2l0,0l-0.6-12.9l4.4,1.6
	C45.1,62.4,45.1,82.7,45.1,82.7z"/>
<linearGradient id="SVGID_2_" gradientUnits="userSpaceOnUse" x1="28.3572" y1="29.5684" x2="31.6474" y2="29.5684" gradientTransform="matrix(1 0 0 -1 0 110)">
	<stop  offset="0" style="stop-color:#E95328"/>
	<stop  offset="1" style="stop-color:#E95328"/>
</linearGradient>
<path class="st1" d="M29.1,75.5c-1.2-0.5-0.7,2.7-0.4,4.3c0.3,1.9,1,4.8,2.1,5.4c1.3,0.7,0.8-2.3,0.5-4.2
	C31,79.4,30.3,76.1,29.1,75.5z"/>
<linearGradient id="SVGID_3_" gradientUnits="userSpaceOnUse" x1="62.4319" y1="121.4964" x2="33.6865" y2="42.5205" gradientTransform="matrix(1 0 0 -1 0 110)">
	<stop  offset="0" style="stop-color:#FBBA00"/>
	<stop  offset="1" style="stop-color:#FBBA00"/>
</linearGradient>
<path class="st2" d="M71.1,11.2l-4.5,16.9L58.4,27l1.1-18.3l9.1,1.2L47.7,0L6,22.9l14.6,11l-0.8-1.3c-3.7-5.9-2.4-12.1,9.2-18.1
	c10.6-5.5,16.4-3.1,19.5,2.7c5.4,10.3-4.1,10.4-0.8,16.5l-10.8,6.3l-0.9-1.5c-4.5-7.7,3.4-9.4,0.3-14.9c-0.8-1.4-2.3-2.1-3.7-1.3
	c-1.8,1-1.5,3.4-0.3,5.4l0.9,1.4l-10.7,6l20.8,15.7l-4.3-7.3l10.6-6.3l5.9,10.7l-8.8,5.5l5.2,3.9l42.4-35.3L71.1,11.2L71.1,11.2z
	 M64.9,40.8L56,39.7l1.4-9.5l9.1,1.2L64.9,40.8z M78.5,29.8L78.5,29.8l-5.9,6.6l1.6-5.5c-1.9-0.5-3.3-2.2-3.3-4.2
	c-0.1-2.4,1.9-4.5,4.3-4.5s4.5,1.9,4.5,4.3c0,0.1,0,0.2,0,0.2C79.8,27.9,79.3,29,78.5,29.8z"/>
<linearGradient id="SVGID_4_" gradientUnits="userSpaceOnUse" x1="98.481" y1="42.3185" x2="48.185" y2="42.3185" gradientTransform="matrix(1 0 0 -1 0 110)">
	<stop  offset="0" style="stop-color:#E95328"/>
	<stop  offset="1" style="stop-color:#E95328"/>
</linearGradient>
<path class="st3" d="M54.1,89.7l1.5-1.5c1.1-1,2.1-1.6,2,0.6c-0.1,2-1.3,3.7-2.3,4.7l-1.5,1.4C53.8,94.9,54.1,89.7,54.1,89.7z
	 M90.1,69.6L88.2,64L85,74.2l-5.7,5.3l6.1-16.6L82,55.4l6.3-6l1.4,5.2l3-9.4l4.6-4.3l1.2-13L50.7,60.4l-1,19.1l9.3-8.8
	c2.6-2.4,5-3.4,4.7,1.6c-0.2,3.5-1.4,6.4-3.5,9.2l0,0.1c2-1.5,3.1,0.1,3,2.7c-0.4,6.4-3.4,9.9-6.5,12.8l-8.4,8l-0.1,2.4l45.7-30.9
	L94.9,65L90.1,69.6L90.1,69.6z M58.1,78.6c0.1-1.9-0.8-1.6-1.8-0.7l-1.6,1.5l-0.3,5l1.4-1.3C56.8,82.1,57.9,80.5,58.1,78.6z
	 M95.3,61.7L96.9,44l-4.5,12.3C92.5,56.2,95.3,61.7,95.3,61.7z M73,68.3c2.3-2.2,2.7-6.6,3-9.4c0.2-2.4,0.4-7.1-1.8-5
	c-2.2,2.1-2.7,7-2.9,9.4C71,66.2,70.9,70.3,73,68.3z M72.5,74.4c-5.2,4.9-7.9,3.3-7.3-5.3c0.6-8.6,4.1-16.4,9.4-21.5
	c5.4-5.2,8.2-3.4,7.4,5.5C81.2,62,77.7,69.5,72.5,74.4z"/>
<path class="st4" d="M147.2,40c-4-1.4-8.1-2.1-12.3-2.1c-2.5,0-6.8,0.1-6.8,2.7c0,5.4,21.8,0.3,21.8,16.3c0,11.1-11,13.9-20.2,13.9
	c-6.1,0-11.2-0.6-17.1-2V58.1c4.3,1.8,9.5,2.7,14.3,2.7c3.7,0,7.1-0.8,7.1-2.9c0-5.6-21.8-0.5-21.8-16.7c0-11.4,11.9-13.4,21.3-13.4
	c4.5,0,9.4,0.5,13.7,1.4L147.2,40L147.2,40z M182.5,28.6h15.9v41.5h-15.9V55.2h-10.6v14.9H156V28.6h15.9V43h10.6V28.6z M220.4,49.4
	c0-3.9,0.5-11.5,6.4-11.5c6.1,0,6.5,7.6,6.5,11.5c-0.1,4.5-0.2,11.5-6.5,11.5C221.1,60.9,220.4,53.9,220.4,49.4L220.4,49.4z
	 M250,49.4c0-13.9-8.7-21.5-23.2-21.5c-14.5,0-23,7.5-23,21.5c0,14.2,8.5,21.5,23,21.5C241.3,70.9,250,63.6,250,49.4z M272.2,55.2
	h0.1l6.7-26.5h15.3l6.5,26.5h0.1l5.1-26.5h14.2l-10,41.5H293l-7-27.1H286l-6.6,27.1h-17.5l-9.7-41.5h14.9
	C267.1,28.6,272.2,55.2,272.2,55.2z M341.3,53.1h4.3c3,0,5.9,0.7,5.9,4.2c0,3.2-3.1,4.3-6.1,4.3h-4.2V53.1z M326.4,70.2h24.1
	c8.6,0,17.1-1.1,17.1-11.5c0-4.2-3.6-8.7-9.3-9.5V49c5.5-1.4,8.6-4.4,8.6-10.2c0-7.9-7.1-10.2-14.3-10.2h-26.1V70.2z M341.3,36.5
	h4.3c2.9,0,5.5,1,5.5,4c0,3.2-3,4-5.8,4h-4C341.3,44.5,341.3,36.5,341.3,36.5z M387.8,49.4c0-3.9,0.5-11.5,6.4-11.5
	c6.1,0,6.5,7.6,6.5,11.5c-0.1,4.5-0.2,11.5-6.5,11.5C388.4,60.9,387.8,53.9,387.8,49.4L387.8,49.4z M417.3,49.4
	c0-13.9-8.7-21.5-23.2-21.5c-14.5,0-23,7.5-23,21.5c0,14.2,8.5,21.5,23,21.5C408.6,70.9,417.3,63.6,417.3,49.4z"/>
<path class="st4" d="M416.8,28.6h18.4l6.2,12.3l6.7-12.3h16.8l-13.9,20.2l15,21.3h-18.5l-7.8-14l-7.3,14H415l14.9-21.3
	C429.9,48.9,416.8,28.6,416.8,28.6z"/>
</svg>
