<svg xmlns="http://www.w3.org/2000/svg" width="42.63" height="50.2" viewBox="0 0 42.63 50.2">
  <g id="city" transform="translate(-15.685 0.35)">
    <path id="패스_5793" data-name="패스 5793" d="M95.193,183.285h-5.1a.874.874,0,0,0-.874.874v4.97a.874.874,0,0,0,.874.874h5.1a.874.874,0,0,0,.874-.874v-4.97A.874.874,0,0,0,95.193,183.285Zm-.874,4.97H90.962v-3.222h3.357Z" transform="translate(-66.786 -165.263)" fill="#4c4948" stroke="#fff" stroke-width="0.7"/>
    <path id="패스_5794" data-name="패스 5794" d="M95.193,281.637h-5.1a.874.874,0,0,0-.874.874v4.97a.874.874,0,0,0,.874.874h5.1a.874.874,0,0,0,.874-.874v-4.97A.874.874,0,0,0,95.193,281.637Zm-.874,4.97H90.962v-3.222h3.357Z" transform="translate(-66.786 -253.945)" fill="#4c4948" stroke="#fff" stroke-width="0.7"/>
    <path id="패스_5795" data-name="패스 5795" d="M95.193,379.988h-5.1a.874.874,0,0,0-.874.874v4.97a.874.874,0,0,0,.874.874h5.1a.874.874,0,0,0,.874-.874v-4.97A.874.874,0,0,0,95.193,379.988Zm-.874,4.97H90.962v-3.222h3.357Z" transform="translate(-66.786 -342.022)" fill="#4c4948" stroke="#fff" stroke-width="0.7"/>
    <path id="패스_5796" data-name="패스 5796" d="M251.665,180.982a.874.874,0,0,0-.874.874v21.009a.874.874,0,0,0,1.747,0V181.856A.874.874,0,0,0,251.665,180.982Z" transform="translate(-214.246 -160.402)" fill="#4c4948" stroke="#fff" stroke-width="0.7"/>
    <path id="패스_5797" data-name="패스 5797" d="M361.448,226.938h-3.693a.874.874,0,1,0,0,1.747h3.693a.874.874,0,1,0,0-1.747Z" transform="translate(-311.067 -204.912)" fill="#4c4948" stroke="#fff" stroke-width="0.7"/>
    <path id="패스_5798" data-name="패스 5798" d="M361.448,277.075h-3.693a.874.874,0,1,0,0,1.747h3.693a.874.874,0,1,0,0-1.747Z" transform="translate(-311.067 -250.183)" fill="#4c4948" stroke="#fff" stroke-width="0.7"/>
    <path id="패스_5799" data-name="패스 5799" d="M361.448,327.211h-3.693a.874.874,0,1,0,0,1.747h3.693a.874.874,0,1,0,0-1.747Z" transform="translate(-311.067 -295.452)" fill="#4c4948" stroke="#fff" stroke-width="0.7"/>
    <path id="패스_5800" data-name="패스 5800" d="M57.091,47.566H55.934V16.506a.924.924,0,0,0-.874-.967H47.538v-5.4a.924.924,0,0,0-.874-.967h-1.18V4.436a.924.924,0,0,0-.874-.967H40.338V.967a.878.878,0,1,0-1.747,0v2.5H34.816a.924.924,0,0,0-.874.967V9.171h-1.18a.924.924,0,0,0-.874.967v2.8H18.947a.924.924,0,0,0-.874.967V47.566H16.909a.972.972,0,0,0,0,1.934H57.091a.972.972,0,0,0,0-1.934ZM35.69,5.4h8.047V9.171H35.69ZM19.82,14.875H31.888V47.566H19.82ZM33.636,11.1H45.791v4.435H42.008a.924.924,0,0,0-.874.967v31.06h-7.5ZM49.57,47.566H47.5V40.605H49.57Zm1.747,0V39.638a.924.924,0,0,0-.874-.967h-3.82a.924.924,0,0,0-.874.967v7.928H42.882V17.473h11.3V47.566Z" transform="translate(0 0)" fill="#4c4948" stroke="#fff" stroke-width="0.7"/>
  </g>
</svg>
