<svg xmlns="http://www.w3.org/2000/svg" width="43.583" height="43.534" viewBox="0 0 43.583 43.534">
  <g id="security-camera" transform="translate(0.4 0.419)">
    <g id="그룹_497" data-name="그룹 497" transform="translate(0 0)">
      <g id="그룹_496" data-name="그룹 496" transform="translate(0 0)">
        <path id="패스_2332" data-name="패스 2332" d="M41.994,17.827l-1.247-.582a6.318,6.318,0,0,0,.642-1.081L42.429,13.9a1.252,1.252,0,0,0-.605-1.663L16.888.6A6.264,6.264,0,0,0,8.573,3.624L5.4,10.429a6.264,6.264,0,0,0,3.027,8.315l7.949,3.707L11.8,30.211H10.178V28.96a3.759,3.759,0,0,0-3.754-3.754H1.251A1.251,1.251,0,0,0,0,26.457V41.474a1.251,1.251,0,0,0,1.251,1.251H6.424a3.759,3.759,0,0,0,3.754-3.754V37.72h3.754a3.776,3.776,0,0,0,3.223-1.829l6.059-10.25,5.627,2.624a3.752,3.752,0,0,0,4.989-1.816l.529-1.134,3.4,1.587a1.251,1.251,0,0,0,1.663-.605L42.6,19.49A1.252,1.252,0,0,0,41.994,17.827ZM7.676,38.972a1.253,1.253,0,0,1-1.251,1.251H2.5V27.709H6.424A1.253,1.253,0,0,1,7.676,28.96V38.972Zm7.33-4.361a1.257,1.257,0,0,1-1.073.607H10.178v-2.5h2.337a1.251,1.251,0,0,0,1.078-.616l5.061-8.585,2.281,1.064Zm16.557-9.22A1.251,1.251,0,0,1,29.9,26L15.856,19.447l5.97-4.738a1.245,1.245,0,0,1,1.307-.154l9.94,4.635a6.318,6.318,0,0,0,1.187.416Zm2.568-8.468-9.94-4.635a3.734,3.734,0,0,0-3.921.462l-6.344,5.035a1.244,1.244,0,0,1-1.307.154L9.484,16.476h0a3.759,3.759,0,0,1-1.816-4.989l3.173-6.805a3.759,3.759,0,0,1,4.989-1.816L39.649,13.972l-.529,1.134A3.752,3.752,0,0,1,34.131,16.922ZM37.686,24.1l-2.268-1.058L37,19.643a6.286,6.286,0,0,0,1.664-.606l1.134.529Z" transform="translate(0 -0.011)" fill="#8a8a8a" stroke="#fff" stroke-width="0.8"/>
      </g>
    </g>
    <g id="그룹_499" data-name="그룹 499" transform="translate(25.577 19.15)">
      <g id="그룹_498" data-name="그룹 498">
        <path id="패스_2333" data-name="패스 2333" d="M312.212,231.538l-2.353-1.1a1.3,1.3,0,1,0-1.1,2.353l2.353,1.1a1.3,1.3,0,1,0,1.1-2.353Z" transform="translate(-308.012 -230.319)" fill="#8a8a8a" stroke="#fff" stroke-width="0.8"/>
      </g>
    </g>
  </g>
</svg>
