<svg xmlns="http://www.w3.org/2000/svg" width="35.597" height="35.597" viewBox="0 0 35.597 35.597">
  <g id="servers_1_" data-name="servers (1)" opacity="0.996">
    <g id="그룹_501" data-name="그룹 501">
      <g id="그룹_500" data-name="그룹 500">
        <path id="패스_2334" data-name="패스 2334" d="M256.742,278.816h11.866a.742.742,0,1,0,0-1.483H256.742a.742.742,0,1,0,0,1.483Z" transform="translate(-238.201 -258.051)" fill="#8a8a8a"/>
        <path id="패스_2335" data-name="패스 2335" d="M35.6,14.091V11.124a3.675,3.675,0,0,0-.567-1.947.581.581,0,0,0-.021-.055L30.424,1.75A3.688,3.688,0,0,0,27.275,0H8.324A3.686,3.686,0,0,0,5.175,1.75L.589,9.122c-.009.015-.009.031-.018.047A3.67,3.67,0,0,0,0,11.124v2.966a3.694,3.694,0,0,0,1.507,2.966A3.692,3.692,0,0,0,0,20.023V22.99a3.694,3.694,0,0,0,1.507,2.966A3.692,3.692,0,0,0,0,28.923v2.966A3.713,3.713,0,0,0,3.708,35.6h9.724a.742.742,0,1,0,0-1.483H3.708a2.228,2.228,0,0,1-2.225-2.225V28.923A2.227,2.227,0,0,1,3.708,26.7H16.114a.742.742,0,1,0,0-1.483H3.708A2.228,2.228,0,0,1,1.483,22.99V20.023A2.227,2.227,0,0,1,3.708,17.8H31.889a2.228,2.228,0,0,1,2.225,2.225V22.99a2.206,2.206,0,0,1-.234.97.742.742,0,0,0,1.332.653A3.648,3.648,0,0,0,35.6,22.99V20.023a3.694,3.694,0,0,0-1.507-2.966A3.7,3.7,0,0,0,35.6,14.091ZM6.434,2.533a2.209,2.209,0,0,1,1.888-1.05H27.273a2.214,2.214,0,0,1,1.89,1.05l3.06,4.917a3.1,3.1,0,0,0-.334-.034H3.708c-.114,0-.222.022-.334.033Zm27.68,11.557a2.228,2.228,0,0,1-2.225,2.225H3.708a2.228,2.228,0,0,1-2.225-2.225V11.124A2.227,2.227,0,0,1,3.708,8.9H31.889a2.227,2.227,0,0,1,2.225,2.225v2.966Z" transform="translate(0 0)" fill="#8a8a8a"/>
        <path id="패스_2336" data-name="패스 2336" d="M42.667,407.558a2.225,2.225,0,1,0,2.225-2.225A2.227,2.227,0,0,0,42.667,407.558Zm2.966,0a.742.742,0,1,1-.742-.742A.742.742,0,0,1,45.633,407.558Z" transform="translate(-39.701 -377.152)" fill="#8a8a8a"/>
        <path id="패스_2337" data-name="패스 2337" d="M228.908,322.966c-.135,0-.27.007-.4.019A6.652,6.652,0,0,0,216.335,326a3.708,3.708,0,0,0,.708,7.348h11.866a5.191,5.191,0,1,0,0-10.382Zm0,8.9H217.042a2.225,2.225,0,1,1,0-4.45.742.742,0,0,0,.742-.742,5.172,5.172,0,0,1,9.7-2.524.741.741,0,0,0,.777.366,3.757,3.757,0,0,1,.65-.067,3.708,3.708,0,0,1,0,7.416Z" transform="translate(-198.502 -297.752)" fill="#8a8a8a"/>
        <path id="패스_2338" data-name="패스 2338" d="M268.607,149.333H256.742a.742.742,0,1,0,0,1.483h11.866a.742.742,0,1,0,0-1.483Z" transform="translate(-238.201 -138.951)" fill="#8a8a8a"/>
        <path id="패스_2339" data-name="패스 2339" d="M268.607,192H256.742a.742.742,0,1,0,0,1.483h11.866a.742.742,0,1,0,0-1.483Z" transform="translate(-238.201 -178.651)" fill="#8a8a8a"/>
        <path id="패스_2340" data-name="패스 2340" d="M44.892,149.333a2.225,2.225,0,1,0,2.225,2.225A2.227,2.227,0,0,0,44.892,149.333Zm0,2.966a.742.742,0,1,1,.742-.742A.742.742,0,0,1,44.892,152.3Z" transform="translate(-39.701 -138.951)" fill="#8a8a8a"/>
        <path id="패스_2341" data-name="패스 2341" d="M42.667,279.558a2.225,2.225,0,1,0,2.225-2.225A2.228,2.228,0,0,0,42.667,279.558Zm2.966,0a.742.742,0,1,1-.742-.742A.742.742,0,0,1,45.633,279.558Z" transform="translate(-39.701 -258.051)" fill="#8a8a8a"/>
      </g>
    </g>
  </g>
</svg>
