<svg xmlns="http://www.w3.org/2000/svg" width="40.34" height="37.259" viewBox="0 0 40.34 37.259">
  <g id="bell" transform="translate(7.907)" opacity="0.443">
    <g id="그룹_2137" data-name="그룹 2137" transform="translate(13.803 0)">
      <path id="패스_6023" data-name="패스 6023" d="M15.434,6.489a.777.777,0,0,1-.776-.776V3.1a1.552,1.552,0,1,0-3.1,0V5.713a.776.776,0,1,1-1.552,0V3.1a3.1,3.1,0,0,1,6.21,0V5.713A.776.776,0,0,1,15.434,6.489Z" transform="translate(-10 0)"/>
    </g>
    <g id="그룹_2138" data-name="그룹 2138" transform="translate(11.474 31.049)">
      <path id="패스_6024" data-name="패스 6024" d="M13.934,26.21A5.44,5.44,0,0,1,8.5,20.776a.776.776,0,1,1,1.552,0,3.881,3.881,0,1,0,7.762,0,.776.776,0,1,1,1.552,0A5.44,5.44,0,0,1,13.934,26.21Z" transform="translate(-8.5 -20)"/>
    </g>
    <g id="그룹_2139" data-name="그룹 2139" transform="translate(1.383 4.657)">
      <path id="패스_6025" data-name="패스 6025" d="M30.721,30.944H4.329a2.329,2.329,0,0,1-1.514-4.1,10.793,10.793,0,0,0,3.842-8.262V13.867a10.867,10.867,0,1,1,21.735,0v4.716a10.781,10.781,0,0,0,3.83,8.251,2.329,2.329,0,0,1-1.5,4.109ZM17.525,4.552A9.324,9.324,0,0,0,8.21,13.867v4.716a12.334,12.334,0,0,1-4.38,9.437.776.776,0,0,0,.5,1.371H30.721a.776.776,0,0,0,.5-1.366,12.343,12.343,0,0,1-4.386-9.442V13.867a9.324,9.324,0,0,0-9.315-9.315Z" transform="translate(-2 -3)"/>
    </g>
    <path id="패스_6033" data-name="패스 6033" d="M6.674,44.788a.793.793,0,0,1-.564-.234,14.4,14.4,0,0,1,0-20.368.8.8,0,1,1,1.129,1.129,12.806,12.806,0,0,0,0,18.11.8.8,0,0,1-.564,1.363Z" transform="translate(-9.798 -20.233)"/>
    <path id="패스_6034" data-name="패스 6034" d="M10.514,42.667a.8.8,0,0,1-.564-.234,10.415,10.415,0,0,1,0-14.71.8.8,0,1,1,1.129,1.127,8.817,8.817,0,0,0,0,12.455.8.8,0,0,1-.564,1.363Z" transform="translate(-10.81 -20.941)"/>
    <path id="패스_6035" data-name="패스 6035" d="M14.353,40.558a.8.8,0,0,1-.564-.234,6.405,6.405,0,0,1,0-9.051A.8.8,0,1,1,14.918,32.4a4.809,4.809,0,0,0,0,6.793.8.8,0,0,1-.564,1.363Z" transform="translate(-11.82 -21.662)"/>
  </g>
</svg>
