<svg xmlns="http://www.w3.org/2000/svg" width="37.777" height="37.777" viewBox="0 0 37.777 37.777">
  <g id="bank" transform="translate(0.25 -0.25)">
    <path id="패스_132" data-name="패스 132" d="M35.413,13.547V11.684h1.243a.621.621,0,0,0,.621-.621V5.471a.622.622,0,0,0-.475-.6L18.785.518a.615.615,0,0,0-.311,0L.457,5.493a.622.622,0,0,0-.457.6v4.97a.621.621,0,0,0,.621.621H1.864v1.864a.621.621,0,0,0,.621.621V29.079a.621.621,0,0,0-.621.621v1.864H1.243a.621.621,0,0,0-.621.621V34.05A.622.622,0,0,0,0,34.671v2.485a.621.621,0,0,0,.621.621H36.656a.621.621,0,0,0,.621-.621V34.671a.621.621,0,0,0-.621-.621V32.186a.621.621,0,0,0-.621-.621h-.621V29.7a.621.621,0,0,0-.621-.621V14.169A.621.621,0,0,0,35.413,13.547Zm-1.243-.621H29.2V11.684h4.97ZM28.579,29.08a.621.621,0,0,0-.621.621v1.864H9.319V29.7A.621.621,0,0,0,8.7,29.08V14.169a.621.621,0,0,0,.621-.621V11.684H27.958v1.864a.621.621,0,0,0,.621.621ZM1.243,6.566l17.407-4.8,17.386,4.2v4.481H1.243Zm6.834,5.118v1.243H3.107V11.684ZM3.728,14.169H7.455V29.08H3.728ZM3.107,30.322h4.97v1.243H3.107Zm32.928,6.213H1.243V35.293H36.035ZM1.864,34.05V32.807H35.413V34.05ZM29.2,31.565V30.322h4.97v1.243ZM33.55,29.08H29.822V14.169H33.55Zm0,0" transform="translate(0 0)" fill="#4c4948" stroke="#fff" stroke-width="0.5"/>
    <path id="패스_133" data-name="패스 133" d="M216.439,40.846a3.107,3.107,0,1,0-3.107-3.107A3.107,3.107,0,0,0,216.439,40.846Zm0-4.971a1.864,1.864,0,1,1-1.864,1.864A1.864,1.864,0,0,1,216.439,35.875Zm0,0" transform="translate(-197.8 -31.647)" fill="#4c4948" stroke="#f4f4f4" stroke-width="0.5"/>
    <path id="패스_134" data-name="패스 134" d="M232.262,241.3a.621.621,0,0,1,.621.621h1.243a1.864,1.864,0,0,0-1.243-1.75v-.735h-1.243v.735a1.86,1.86,0,0,0,.621,3.614.621.621,0,1,1-.621.621H230.4a1.865,1.865,0,0,0,1.243,1.75v.735h1.243v-.735a1.859,1.859,0,0,0-.621-3.613.621.621,0,1,1,0-1.243Zm0,0" transform="translate(-213.624 -221.537)" fill="#4c4948" stroke="#f4f4f4" stroke-width="0.5"/>
    <path id="패스_135" data-name="패스 135" d="M176.881,205.3a6.213,6.213,0,1,0,6.213,6.213A6.213,6.213,0,0,0,176.881,205.3Zm0,11.183a4.97,4.97,0,1,1,4.97-4.97A4.97,4.97,0,0,1,176.881,216.484Zm0,0" transform="translate(-158.242 -189.889)" fill="#4c4948" stroke="#f4f4f4" stroke-width="0.5"/>
  </g>
</svg>
