<svg xmlns="http://www.w3.org/2000/svg" width="41.577" height="41.506" viewBox="0 0 41.577 41.506">
  <g id="webcam" transform="translate(0.447 0.4)" opacity="0.454">
    <g id="그룹_505" data-name="그룹 505" transform="translate(9.931 8.838)">
      <g id="그룹_504" data-name="그룹 504">
        <path id="패스_2358" data-name="패스 2358" d="M146.41,121a10.41,10.41,0,1,0,10.41,10.41A10.422,10.422,0,0,0,146.41,121Zm0,18.218a7.808,7.808,0,1,1,7.808-7.808A7.816,7.816,0,0,1,146.41,139.22Z" transform="translate(-136 -121.002)" stroke="#fff" stroke-width="0.8"/>
      </g>
    </g>
    <g id="그룹_507" data-name="그룹 507" transform="translate(15.136 13.98)">
      <g id="그룹_506" data-name="그룹 506">
        <path id="패스_2359" data-name="패스 2359" d="M201.206,181a5.205,5.205,0,1,0,5.205,5.205A5.211,5.211,0,0,0,201.206,181Zm0,7.808a2.6,2.6,0,1,1,2.6-2.6A2.605,2.605,0,0,1,201.206,188.81Z" transform="translate(-196.001 -181.002)" stroke="#fff" stroke-width="0.8"/>
      </g>
    </g>
    <g id="그룹_509" data-name="그룹 509" transform="translate(0)">
      <g id="그룹_508" data-name="그룹 508">
        <path id="패스_2360" data-name="패스 2360" d="M40.322,35.513c-1.3-2.556-4.4-4.844-8.648-6.436a16.688,16.688,0,1,0-22.606,0C4.823,30.668,1.724,32.957.42,35.512a3.5,3.5,0,0,0,.333,3.74,3.616,3.616,0,0,0,3.629,1.359,83.239,83.239,0,0,1,31.977,0,3.616,3.616,0,0,0,3.629-1.359A3.5,3.5,0,0,0,40.322,35.513ZM6.067,16.768a14.3,14.3,0,1,1,14.3,14.384A14.36,14.36,0,0,1,6.067,16.768ZM38.091,37.81a1.234,1.234,0,0,1-1.256.465,85.711,85.711,0,0,0-32.927,0,1.234,1.234,0,0,1-1.256-.465A1.116,1.116,0,0,1,2.544,36.6c1.131-2.217,4.461-4.4,8.755-5.767a16.555,16.555,0,0,0,18.144,0c4.294,1.365,7.624,3.55,8.755,5.768A1.116,1.116,0,0,1,38.091,37.81Z" transform="translate(-0.03)" stroke="#fff" stroke-width="0.8"/>
      </g>
    </g>
    <g id="그룹_511" data-name="그룹 511" transform="translate(19.04 5.292)">
      <g id="그룹_510" data-name="그룹 510">
        <circle id="타원_17" data-name="타원 17" cx="1.301" cy="1.301" r="1.301" stroke="#fff" stroke-width="0.8"/>
      </g>
    </g>
  </g>
</svg>
