<svg xmlns="http://www.w3.org/2000/svg" width="38.5" height="38.5" viewBox="0 0 38.5 38.5">
  <g id="cctv_1_" data-name="cctv (1)" transform="translate(0.25 0.25)">
    <g id="그룹_2157" data-name="그룹 2157">
      <path id="패스_6086" data-name="패스 6086" d="M38,7.867V1.113A1.113,1.113,0,0,0,36.887,0H1.113A1.113,1.113,0,0,0,0,1.113V7.867a1.186,1.186,0,0,0,.134.53h0L2.3,12.591V21.3a16.7,16.7,0,0,0,33.4,0v-8.71L37.866,8.4h0A1.169,1.169,0,0,0,38,7.867Zm-4.092,3.34H4.092L2.942,8.98H35.058ZM2.227,2.227H35.773V6.754H2.227ZM12.32,34.137v-9.57a6.68,6.68,0,0,1,13.359,0v9.57a14.449,14.449,0,0,1-13.359,0ZM27.906,32.7V24.566a8.906,8.906,0,1,0-17.812,0V32.7A14.455,14.455,0,0,1,4.527,21.3V13.434H33.473V21.3A14.455,14.455,0,0,1,27.906,32.7Z" fill="#8a8a8a" stroke="#fff" stroke-width="0.5"/>
      <path id="패스_6087" data-name="패스 6087" d="M200.507,271a4.507,4.507,0,1,0,4.507,4.507A4.512,4.512,0,0,0,200.507,271Zm0,6.761a2.254,2.254,0,1,1,2.254-2.254A2.256,2.256,0,0,1,200.507,277.761Z" transform="translate(-181.507 -250.961)" fill="#8a8a8a" stroke="#fff" stroke-width="0.5"/>
    </g>
    <circle id="타원_52" data-name="타원 52" cx="1" cy="1" r="1" transform="translate(17.772 31.539)" fill="#8a8a8a" stroke="#fff" stroke-width="0.5"/>
  </g>
</svg>
