<svg xmlns="http://www.w3.org/2000/svg" width="41.31" height="31.636" viewBox="0 0 41.31 31.636">
  <g id="그룹_1703" data-name="그룹 1703" transform="translate(0 -91.528)">
    <g id="그룹_1699" data-name="그룹 1699" transform="translate(0 91.528)">
      <path id="패스_5592" data-name="패스 5592" d="M29.358,123.164a.627.627,0,0,1-.486-.235c-.23-.282-.394-.795.113-3.922.154-.952.331-1.886.447-2.478H2.465A2.468,2.468,0,0,1,0,114.063V93.993a2.468,2.468,0,0,1,2.465-2.465h36.38a2.468,2.468,0,0,1,2.465,2.465v20.07a2.468,2.468,0,0,1-2.465,2.465H34.782c-.334.525-1.162,1.811-2.055,3.086-2.28,3.256-2.927,3.539-3.354,3.549ZM2.465,92.574a1.421,1.421,0,0,0-1.419,1.419v20.07a1.421,1.421,0,0,0,1.419,1.419H30.713s-.42,2.027-.665,3.507a24.338,24.338,0,0,0-.346,2.8c.647-.517,4.5-6.3,4.5-6.3h4.641a1.421,1.421,0,0,0,1.419-1.419V93.993a1.421,1.421,0,0,0-1.419-1.419Z" transform="translate(0 -91.528)" fill="#4c4948"/>
    </g>
    <g id="그룹_1700" data-name="그룹 1700" transform="translate(11.845 102.326)">
      <path id="패스_5593" data-name="패스 5593" d="M226.061,299.714A1.936,1.936,0,1,1,228,297.778,1.938,1.938,0,0,1,226.061,299.714Zm0-2.826a.89.89,0,1,0,.889.89A.891.891,0,0,0,226.061,296.888Z" transform="translate(-224.125 -295.842)" fill="#4c4948"/>
    </g>
    <g id="그룹_1701" data-name="그룹 1701" transform="translate(17.807 102.326)">
      <path id="패스_5594" data-name="패스 5594" d="M338.864,299.714a1.936,1.936,0,1,1,1.935-1.936A1.938,1.938,0,0,1,338.864,299.714Zm0-2.826a.89.89,0,1,0,.889.89A.891.891,0,0,0,338.864,296.888Z" transform="translate(-336.928 -295.842)" fill="#4c4948"/>
    </g>
    <g id="그룹_1702" data-name="그룹 1702" transform="translate(24.051 102.326)">
      <path id="패스_5595" data-name="패스 5595" d="M457.016,299.714a1.936,1.936,0,1,1,1.935-1.936A1.938,1.938,0,0,1,457.016,299.714Zm0-2.826a.89.89,0,1,0,.889.89A.891.891,0,0,0,457.016,296.888Z" transform="translate(-455.08 -295.842)" fill="#4c4948"/>
    </g>
  </g>
</svg>
