<svg xmlns="http://www.w3.org/2000/svg" width="43.219" height="43.764" viewBox="0 0 43.219 43.764">
  <g id="gears_1_" data-name="gears (1)" opacity="0.454">
    <path id="패스_2363" data-name="패스 2363" d="M18.462,182.786H12.308a.855.855,0,0,1-.854-.855v-1.816a13.234,13.234,0,0,1-2.278-.945l-1.285,1.286a.856.856,0,0,1-1.209,0L2.331,176.1a.854.854,0,0,1,0-1.209l1.285-1.285a13.259,13.259,0,0,1-.945-2.277H.855A.855.855,0,0,1,0,170.478v-6.154a.855.855,0,0,1,.855-.855H2.671a13.261,13.261,0,0,1,.945-2.278l-1.285-1.285a.854.854,0,0,1,0-1.209l4.351-4.352a.855.855,0,0,1,1.209,0l1.285,1.285a13.225,13.225,0,0,1,2.278-.945V152.87a.855.855,0,0,1,.854-.855h6.154a.855.855,0,0,1,.855.855v1.816a13.259,13.259,0,0,1,2.277.945l1.286-1.286a.855.855,0,0,1,1.209,0L28.44,158.7a.854.854,0,0,1,0,1.209l-1.286,1.286a13.205,13.205,0,0,1,.945,2.277h1.817a.855.855,0,0,1,.854.855v6.154a.855.855,0,0,1-.854.854H28.1a13.209,13.209,0,0,1-.945,2.278L28.44,174.9a.855.855,0,0,1,0,1.209l-4.352,4.351a.854.854,0,0,1-1.209,0l-1.286-1.285a13.257,13.257,0,0,1-2.277.945v1.816A.855.855,0,0,1,18.462,182.786Zm-5.3-1.71h4.445v-1.609a.854.854,0,0,1,.644-.828,11.519,11.519,0,0,0,3.052-1.266.854.854,0,0,1,1.041.13l1.139,1.139,3.143-3.143-1.139-1.139a.855.855,0,0,1-.13-1.041,11.511,11.511,0,0,0,1.266-3.052.855.855,0,0,1,.828-.644h1.609v-4.444H27.452a.855.855,0,0,1-.828-.644,11.522,11.522,0,0,0-1.266-3.052.855.855,0,0,1,.13-1.041l1.139-1.139-3.143-3.143L22.345,157.3a.855.855,0,0,1-1.041.13,11.514,11.514,0,0,0-3.052-1.266.855.855,0,0,1-.644-.828v-1.609H13.163v1.609a.855.855,0,0,1-.644.828,11.514,11.514,0,0,0-3.052,1.266.855.855,0,0,1-1.041-.13l-1.139-1.139L4.144,159.3l1.139,1.139a.855.855,0,0,1,.13,1.041,11.523,11.523,0,0,0-1.266,3.052.855.855,0,0,1-.828.644H1.71v4.445H3.318a.854.854,0,0,1,.828.644,11.528,11.528,0,0,0,1.266,3.052.855.855,0,0,1-.13,1.041L4.144,175.5l3.143,3.143L8.425,177.5a.855.855,0,0,1,1.041-.13,11.5,11.5,0,0,0,3.052,1.266.855.855,0,0,1,.644.828v1.609Zm0,0" transform="translate(0 -139.022)"/>
    <path id="패스_2364" data-name="패스 2364" d="M97.689,264.4a7.694,7.694,0,0,1-3.662-14.46.855.855,0,1,1,.815,1.5,5.983,5.983,0,1,0,5.4-.147.855.855,0,0,1,.732-1.545A7.694,7.694,0,0,1,97.689,264.4Zm0,0" transform="translate(-82.303 -228.326)"/>
    <path id="패스_2365" data-name="패스 2365" d="M170.858,243.721h-.011a.855.855,0,0,1,0-1.71h.011a.855.855,0,0,1,0,1.71Zm0,0" transform="translate(-155.462 -221.325)"/>
    <path id="패스_2366" data-name="패스 2366" d="M301.161,18.121h-5.129a.855.855,0,0,1-.854-.855V15.792a7.472,7.472,0,0,1-.7-.406l-1.277.737a.854.854,0,0,1-1.167-.313l-2.564-4.441a.854.854,0,0,1,.313-1.167l1.277-.737c-.008-.137-.011-.272-.011-.4s0-.268.011-.4l-1.277-.737a.854.854,0,0,1-.313-1.167l2.564-4.441A.854.854,0,0,1,293.2,2l1.277.737a7.546,7.546,0,0,1,.7-.406V.855A.855.855,0,0,1,296.033,0h5.129a.855.855,0,0,1,.855.855V2.328a7.521,7.521,0,0,1,.7.406L303.994,2a.855.855,0,0,1,1.168.313l2.564,4.441a.855.855,0,0,1-.313,1.168l-1.277.737c.008.137.012.272.012.4s0,.268-.012.4l1.277.737a.855.855,0,0,1,.313,1.168l-2.564,4.441a.855.855,0,0,1-1.168.313l-1.277-.737a7.641,7.641,0,0,1-.7.406v1.473A.855.855,0,0,1,301.161,18.121Zm-4.274-1.71h3.419V15.246a.854.854,0,0,1,.527-.789,5.846,5.846,0,0,0,1.316-.762.855.855,0,0,1,.948-.062l1.011.583,1.71-2.961-1.011-.583a.855.855,0,0,1-.42-.85,5.693,5.693,0,0,0,0-1.522.855.855,0,0,1,.42-.85l1.011-.584L304.108,3.9l-1.011.583a.855.855,0,0,1-.948-.062,5.847,5.847,0,0,0-1.316-.762.854.854,0,0,1-.527-.789V1.71h-3.419V2.875a.855.855,0,0,1-.527.789,5.84,5.84,0,0,0-1.316.762.855.855,0,0,1-.948.062L293.086,3.9l-1.71,2.961,1.011.584a.854.854,0,0,1,.42.85,5.694,5.694,0,0,0,0,1.522.854.854,0,0,1-.42.85l-1.011.584,1.71,2.961,1.011-.584a.855.855,0,0,1,.948.062,5.847,5.847,0,0,0,1.316.762.854.854,0,0,1,.527.789Zm0,0" transform="translate(-264.621)"/>
    <path id="패스_2367" data-name="패스 2367" d="M355.424,67.86a3.932,3.932,0,1,1,3.932-3.932A3.936,3.936,0,0,1,355.424,67.86Zm0-6.154a2.222,2.222,0,1,0,2.222,2.222A2.225,2.225,0,0,0,355.424,61.706Zm0,0" transform="translate(-321.447 -54.868)"/>
  </g>
</svg>
