<svg xmlns="http://www.w3.org/2000/svg" width="44.637" height="44.637" viewBox="0 0 44.637 44.637">
  <g id="hospital" transform="translate(-4.5 -4.5)">
    <path id="패스_122" data-name="패스 122" d="M50.455,30.9h2.317v2.317a.705.705,0,0,0,.705.705h4.03a.705.705,0,0,0,.705-.705V30.9h2.317a.705.705,0,0,0,.705-.705v-4.03a.705.705,0,0,0-.705-.705H58.212V23.147a.705.705,0,0,0-.705-.705h-4.03a.705.705,0,0,0-.705.705v2.317H50.455a.705.705,0,0,0-.705.705V30.2A.705.705,0,0,0,50.455,30.9Zm.705-4.03h2.317a.705.705,0,0,0,.705-.705V23.852H56.8v2.317a.705.705,0,0,0,.705.705h2.317v2.619H57.507a.705.705,0,0,0-.705.705v2.317H54.182V30.2a.705.705,0,0,0-.705-.705H51.16Z" transform="translate(-28.673 -10.563)" fill="#4c4948" stroke="#fff" stroke-width="0.5"/>
    <path id="패스_123" data-name="패스 123" d="M50.423,61.44a.705.705,0,0,0,.705-.705v-4.03A.705.705,0,0,0,50.423,56h-4.03a.705.705,0,0,0-.705.705v4.03a.705.705,0,0,0,.705.705ZM47.1,57.41h2.619V60.03H47.1Z" transform="translate(-25.85 -32.362)" fill="#4c4948" stroke="#fff" stroke-width="0.5"/>
    <path id="패스_124" data-name="패스 124" d="M68.813,56.705v4.03a.705.705,0,0,0,.705.705h4.03a.705.705,0,0,0,.705-.705v-4.03A.705.705,0,0,0,73.548,56h-4.03A.705.705,0,0,0,68.813,56.705Zm1.41.705h2.619V60.03H70.223Z" transform="translate(-40.453 -32.362)" fill="#4c4948" stroke="#fff" stroke-width="0.5"/>
    <path id="패스_125" data-name="패스 125" d="M48.236,17.93H38.179V5.4a.652.652,0,0,0-.652-.652H16.11a.652.652,0,0,0-.652.652V17.93H5.4a.652.652,0,0,0-.652.652V48.236a.652.652,0,0,0,.652.652H48.236a.652.652,0,0,0,.652-.652V18.582A.652.652,0,0,0,48.236,17.93Zm-42.182,1.3h9.4v28.35h-9.4Zm10.708-.652V6.054H36.875v41.53H32.6V33.408a.652.652,0,0,0-.652-.652H21.686a.652.652,0,0,0-.652.652V47.584H16.762ZM22.338,34.06h3.829V47.584H22.338Zm5.133,13.524V34.06H31.3V47.584Zm20.113,0h-9.4V19.233h9.4Z" transform="translate(0 0)" fill="#4c4948" stroke="#fff" stroke-width="0.5"/>
    <path id="패스_126" data-name="패스 126" d="M101.08,61.44h4.03a.705.705,0,0,0,.705-.705v-4.03A.705.705,0,0,0,105.11,56h-4.03a.705.705,0,0,0-.705.705v4.03A.705.705,0,0,0,101.08,61.44Zm.705-4.03H104.4V60.03h-2.619Z" transform="translate(-60.705 -32.362)" fill="#4c4948" stroke="#fff" stroke-width="0.5"/>
    <path id="패스_127" data-name="패스 127" d="M101.08,83.132h4.03a.705.705,0,0,0,.705-.705V78.4a.705.705,0,0,0-.705-.705h-4.03a.705.705,0,0,0-.705.705v4.03a.705.705,0,0,0,.705.705Zm.705-4.03H104.4v2.619h-2.619Z" transform="translate(-60.705 -46.059)" fill="#4c4948" stroke="#fff" stroke-width="0.5"/>
    <path id="패스_128" data-name="패스 128" d="M101.08,104.825h4.03a.705.705,0,0,0,.705-.705v-4.03a.705.705,0,0,0-.705-.705h-4.03a.705.705,0,0,0-.705.705v4.03a.705.705,0,0,0,.705.705Zm.705-4.03H104.4v2.619h-2.619Z" transform="translate(-60.705 -60.114)" fill="#4c4948" stroke="#fff" stroke-width="0.5"/>
    <path id="패스_129" data-name="패스 129" d="M18.86,56H14.83a.705.705,0,0,0-.705.705v4.03a.705.705,0,0,0,.705.705h4.03a.705.705,0,0,0,.705-.705v-4.03A.705.705,0,0,0,18.86,56Zm-.705,4.03H15.535V57.41h2.619Z" transform="translate(-5.597 -32.362)" fill="#4c4948" stroke="#fff" stroke-width="0.5"/>
    <path id="패스_130" data-name="패스 130" d="M18.86,77.692H14.83a.705.705,0,0,0-.705.705v4.03a.705.705,0,0,0,.705.705h4.03a.705.705,0,0,0,.705-.705V78.4a.705.705,0,0,0-.705-.705Zm-.705,4.03H15.535V79.1h2.619Z" transform="translate(-5.597 -46.059)" fill="#4c4948" stroke="#fff" stroke-width="0.5"/>
    <path id="패스_131" data-name="패스 131" d="M18.86,99.385H14.83a.705.705,0,0,0-.705.705v4.03a.705.705,0,0,0,.705.705h4.03a.705.705,0,0,0,.705-.705v-4.03a.705.705,0,0,0-.705-.705Zm-.705,4.03H15.535V100.8h2.619Z" transform="translate(-5.597 -60.114)" fill="#4c4948" stroke="#fff" stroke-width="0.5"/>
  </g>
</svg>
