<svg xmlns="http://www.w3.org/2000/svg" width="47.648" height="47.648" viewBox="0 0 47.648 47.648">
  <g id="school" transform="translate(0.85 0.85)">
    <path id="패스_141" data-name="패스 141" d="M44.412,23.411,33.624,19.823V18.569a2.251,2.251,0,0,0-1.11-1.936l-8.194-4.8V8.077h7.628a1.346,1.346,0,0,0,1.346-1.346V1.346A1.346,1.346,0,0,0,31.948,0H22.974a1.346,1.346,0,0,0-1.346,1.346V11.831l-8.2,4.8a2.252,2.252,0,0,0-1.11,1.936v1.255L1.535,23.411A2.241,2.241,0,0,0,0,25.54V43.7a2.246,2.246,0,0,0,2.244,2.244H43.7A2.246,2.246,0,0,0,45.948,43.7V25.54a2.241,2.241,0,0,0-1.536-2.129ZM30.6,5.384H24.32V2.692H30.6ZM2.692,25.863l9.626-3.2V43.255H2.692ZM15.01,18.826l7.96-4.661,7.961,4.661v24.43H27.707V36.592a4.733,4.733,0,1,0-9.466,0v6.664H15.01V18.826Zm5.923,24.43V36.592a2.041,2.041,0,1,1,4.082,0v6.664Zm22.323,0H33.624V22.66l9.632,3.2Z" fill="#4c4948" stroke="#fff" stroke-width="1.7"/>
    <path id="패스_142" data-name="패스 142" d="M210.184,223.246a4.517,4.517,0,1,0-4.517-4.517A4.522,4.522,0,0,0,210.184,223.246Zm0-6.342a1.825,1.825,0,1,1-1.825,1.825A1.827,1.827,0,0,1,210.184,216.9Z" transform="translate(-187.21 -194.988)" fill="#4c4948" stroke="#fff" stroke-width="1.7"/>
    <path id="패스_143" data-name="패스 143" d="M69.976,317.787a1.346,1.346,0,0,0-1.346,1.346v.969a1.346,1.346,0,1,0,2.692,0v-.969A1.346,1.346,0,0,0,69.976,317.787Z" transform="translate(-62.471 -289.268)" fill="#4c4948" stroke="#fff" stroke-width="1.7"/>
    <path id="패스_144" data-name="패스 144" d="M69.976,392.12a1.346,1.346,0,0,0-1.346,1.346v.969a1.346,1.346,0,1,0,2.692,0v-.969A1.346,1.346,0,0,0,69.976,392.12Z" transform="translate(-62.471 -356.931)" fill="#4c4948" stroke="#fff" stroke-width="1.7"/>
    <path id="패스_145" data-name="패스 145" d="M414.681,321.449a1.346,1.346,0,0,0,1.346-1.346v-.969a1.346,1.346,0,0,0-2.692,0v.969A1.346,1.346,0,0,0,414.681,321.449Z" transform="translate(-376.242 -289.268)" fill="#4c4948" stroke="#fff" stroke-width="1.7"/>
    <path id="패스_146" data-name="패스 146" d="M414.681,395.782a1.346,1.346,0,0,0,1.346-1.346v-.969a1.346,1.346,0,0,0-2.692,0v.969A1.346,1.346,0,0,0,414.681,395.782Z" transform="translate(-376.242 -356.931)" fill="#4c4948" stroke="#fff" stroke-width="1.7"/>
  </g>
</svg>
