<svg xmlns="http://www.w3.org/2000/svg" width="43.567" height="43.567" viewBox="0 0 43.567 43.567">
  <g id="building" transform="translate(0.25 0.25)">
    <g id="그룹_181" data-name="그룹 181" transform="translate(0 0)">
      <path id="패스_147" data-name="패스 147" d="M39.478,41.632V37.915a3.531,3.531,0,0,0,2.153-3.461c0-1.979-1.288-3.589-2.871-3.589s-2.871,1.61-2.871,3.589a3.531,3.531,0,0,0,2.153,3.461v3.717H34.454V19.38a.718.718,0,0,0-.4-.642l-5.345-2.672V12.2a.718.718,0,0,0-.52-.691L18.663,8.789V.718A.718.718,0,0,0,17.945,0H3.589a.718.718,0,0,0-.718.718V41.632H0v1.436H43.067V41.632Zm-22.251,0H4.307V40.2h6.46V38.761H4.307V35.889h6.46V34.454H4.307V31.583h6.46V30.147H4.307V27.276h6.46V25.84H4.307V22.969h6.46V21.534H4.307V18.663h6.46V17.227H4.307V14.356h6.46V12.92H4.307V10.049h6.46V8.613H4.307V5.742h6.46V4.307H4.307V1.436h12.92Zm10.049,0H18.663V40.2h5.025V38.761H18.663V35.889h5.025V34.454H18.663V31.583h5.025V30.147H18.663V27.276h5.025V25.84H18.663V22.969h5.025V21.534H18.663V18.663h5.025V17.227H18.663V14.356h5.025V12.92H18.663V10.283l8.613,2.461Zm5.742,0H28.712V40.2h2.153V38.761H28.712V35.889h2.153V34.454H28.712V31.583h2.153V30.147H28.712V27.276h2.153V25.84H28.712V22.969h2.153V21.534H28.712V17.671l4.307,2.153ZM38.043,36.3a2.508,2.508,0,0,1-.718-1.845c0-1.167.657-2.153,1.436-2.153s1.436.986,1.436,2.153a2.513,2.513,0,0,1-.718,1.845V35.172H38.043Z" transform="translate(0 0)" fill="#4c4948" stroke="#fff" stroke-width="0.5"/>
    </g>
  </g>
</svg>
