<svg xmlns="http://www.w3.org/2000/svg" width="42.501" height="41.843" viewBox="0 0 42.501 41.843">
  <g id="shopping-cart_1_" data-name="shopping-cart (1)" transform="translate(0.25 -3.757)">
    <g id="그룹_183" data-name="그룹 183" transform="translate(0 4.007)">
      <g id="그룹_182" data-name="그룹 182" transform="translate(0 0)">
        <path id="패스_150" data-name="패스 150" d="M41.865,12.786a.615.615,0,0,0-.425-.228L7.473,9.475a1.921,1.921,0,0,0-.561-1.286L3.3,4.572A1.93,1.93,0,0,0,.565,7.3l3.617,3.617a1.918,1.918,0,0,0,1.365.565,1.938,1.938,0,0,0,.564-.083l5.142,17.028a3.225,3.225,0,0,0,3.1,2.308c.081,0,.162,0,.244-.009l23.255-1.7A2.6,2.6,0,0,0,40.23,26.78L41.995,13.25A.615.615,0,0,0,41.865,12.786ZM6.042,10.049a.7.7,0,0,1-.99,0L1.435,6.432a.7.7,0,1,1,.99-.99L6.042,9.059A.7.7,0,0,1,6.042,10.049Zm15.145,1.906.277,4.5-5.751-.21-.908-4.871ZM7.18,10.684l6.352.577.92,4.941-5.669-.207Zm3.74,12.383L9.16,17.24l5.524.2,1.028,5.52ZM14.508,29.5a2,2,0,0,1-2.076-1.427l-1.143-3.784,4.652-.1.958,5.14Zm1.436-12.014,5.6.2.316,5.133-4.9.109Zm2.189,11.748-.946-5.077,4.745-.105.3,4.882Zm9.679-.708-4.352.318-.3-4.82,4.771-.106Zm.155-5.839-4.88.108-.312-5.061,5.318.194Zm.159-5.989L22.7,16.5l-.273-4.434,5.81.527Zm5.6,11.395-4.686.343.121-4.545,4.911-.109Zm.446-5.544-4.978.111.125-4.687,5.206.19Zm.452-5.614-5.272-.192.107-4.037,5.465.5ZM39.01,26.62A1.362,1.362,0,0,1,37.763,27.8l-2.79.2.342-4.247,4.081-.091Zm.547-4.19-4.143.092.347-4.314,4.326.158Zm.69-5.29-4.387-.16.3-3.667,4.537.412Z" transform="translate(0 -4.007)" fill="#4c4948" stroke="#fff" stroke-width="0.5"/>
      </g>
    </g>
    <g id="그룹_185" data-name="그룹 185" transform="translate(9.885 31.655)">
      <g id="그룹_184" data-name="그룹 184">
        <path id="패스_151" data-name="패스 151" d="M146.7,349.643v-1.474h1.357a.615.615,0,1,0,0-1.23H122.431a.7.7,0,0,1-.643-.976l1.738-4.055a.615.615,0,0,0-1.131-.485l-1.738,4.055a1.93,1.93,0,0,0,1.774,2.691h.678v1.474a2.588,2.588,0,1,0,1.23,0v-1.474h21.127v1.474a2.588,2.588,0,1,0,1.23,0Zm-21.615,2.513a1.357,1.357,0,1,1-1.357-1.357A1.359,1.359,0,0,1,125.082,352.156Zm21,1.358a1.357,1.357,0,1,1,1.357-1.358A1.359,1.359,0,0,1,146.082,353.513Z" transform="translate(-120.5 -341.049)" fill="#4c4948" stroke="#fff" stroke-width="0.5"/>
      </g>
    </g>
  </g>
</svg>
