<svg xmlns="http://www.w3.org/2000/svg" width="30.5" height="41.501" viewBox="0 0 30.5 41.501">
  <path id="합치기_5" data-name="합치기 5" d="M-6523.954-704a2.048,2.048,0,0,1-2.046-2.05v-36.9a2.048,2.048,0,0,1,2.046-2.05h20.454v.006a.673.673,0,0,1,.482.194l6.818,6.834a.684.684,0,0,1,.194.483h.006v31.434a2.048,2.048,0,0,1-2.045,2.05Zm-.682-38.951v36.9a.683.683,0,0,0,.682.683h25.909a.683.683,0,0,0,.682-.683V-736.8h-4.773a2.048,2.048,0,0,1-2.045-2.05v-4.783h-19.772A.683.683,0,0,0-6524.636-742.95Zm21.818,4.1a.683.683,0,0,0,.682.683h3.809l-4.49-4.5Zm-18.409,28.017a2.048,2.048,0,0,1,2.045-2.05,2.048,2.048,0,0,1,2.045,2.05,2.048,2.048,0,0,1-2.045,2.05A2.048,2.048,0,0,1-6521.227-710.833Zm1.364,0a.682.682,0,0,0,.682.683.682.682,0,0,0,.682-.683.683.683,0,0,0-.682-.683A.683.683,0,0,0-6519.863-710.833Zm5.455.683v-1.367h13.636v1.367Zm-6.818-7.517a2.048,2.048,0,0,1,2.045-2.05,2.048,2.048,0,0,1,2.045,2.05,2.048,2.048,0,0,1-2.045,2.05A2.048,2.048,0,0,1-6521.227-717.666Zm1.364,0a.683.683,0,0,0,.682.683.683.683,0,0,0,.682-.683.682.682,0,0,0-.682-.683A.682.682,0,0,0-6519.863-717.666Zm5.455.683v-1.367h13.636v1.367Zm-6.818-7.517a2.047,2.047,0,0,1,2.045-2.05,2.047,2.047,0,0,1,2.045,2.05,2.048,2.048,0,0,1-2.045,2.05A2.048,2.048,0,0,1-6521.227-724.5Zm1.364,0a.683.683,0,0,0,.682.683.683.683,0,0,0,.682-.683.682.682,0,0,0-.682-.683A.682.682,0,0,0-6519.863-724.5Zm5.455.683v-1.367h13.636v1.367Zm-6.818-7.517a2.048,2.048,0,0,1,2.045-2.05,2.048,2.048,0,0,1,2.045,2.05,2.047,2.047,0,0,1-2.045,2.05A2.047,2.047,0,0,1-6521.227-731.333Zm1.364,0a.682.682,0,0,0,.682.683.682.682,0,0,0,.682-.683.683.683,0,0,0-.682-.683A.683.683,0,0,0-6519.863-731.333Zm5.455.683v-1.367h13.636v1.367Z" transform="translate(6526.25 745.25)" fill="#4c4948" stroke="#fff" stroke-width="0.5"/>
</svg>
