<svg xmlns="http://www.w3.org/2000/svg" width="30.128" height="42.783" viewBox="0 0 30.128 42.783">
  <g id="subway" transform="translate(-22.192 -4.481)">
    <path id="패스_136" data-name="패스 136" d="M48.2,6.48,42.886,5.34a26.646,26.646,0,0,0-11.262,0L26.312,6.48a4.927,4.927,0,0,0-3.87,4.792v21a4.907,4.907,0,0,0,4.9,4.9h.976l-3.643,8.947a.624.624,0,1,0,1.156.471l.93-2.285H47.75l.93,2.285a.624.624,0,0,0,1.156-.471l-3.643-8.947h.976a4.907,4.907,0,0,0,4.9-4.9v-21A4.927,4.927,0,0,0,48.2,6.48ZM27.27,43.062l1.264-3.1H45.978l1.264,3.1Zm18.2-4.352H29.042l.625-1.533h15.18Zm5.352-6.435a3.658,3.658,0,0,1-3.654,3.654H27.343a3.658,3.658,0,0,1-3.654-3.654v-21A3.673,3.673,0,0,1,26.577,7.7l5.311-1.141a25.419,25.419,0,0,1,10.738,0L47.938,7.7a3.673,3.673,0,0,1,2.887,3.572Z" transform="translate(0 0)" fill="#4c4948" stroke="#fff" stroke-width="0.5"/>
    <path id="패스_137" data-name="패스 137" d="M53.989,22.44H32.063a.626.626,0,0,0-.623.628v9.345a.625.625,0,0,0,.623.628H53.989a.625.625,0,0,0,.623-.628V23.068a.626.626,0,0,0-.623-.628Zm-21.3,9.345V23.7H53.366v8.09Z" transform="translate(-5.77 -11.352)" fill="#4c4948" stroke="#fff" stroke-width="0.5"/>
    <path id="패스_138" data-name="패스 138" d="M78.624,63.494a3.5,3.5,0,1,0,3.5,3.5,3.5,3.5,0,0,0-3.5-3.5Zm0,5.74a2.242,2.242,0,1,1,2.242-2.242A2.242,2.242,0,0,1,78.624,69.234Z" transform="translate(-33.974 -37.838)" fill="#4c4948" stroke="#fff" stroke-width="0.5"/>
    <path id="패스_139" data-name="패스 139" d="M36.872,63.494a3.5,3.5,0,1,0,3.5,3.5,3.5,3.5,0,0,0-3.5-3.5Zm0,5.74a2.242,2.242,0,1,1,2.242-2.242A2.242,2.242,0,0,1,36.872,69.234Z" transform="translate(-7.01 -37.838)" fill="#4c4948" stroke="#fff" stroke-width="0.5"/>
    <path id="패스_140" data-name="패스 140" d="M52.878,15.006h7.175a.628.628,0,1,0,0-1.256H52.878a.628.628,0,0,0,0,1.256Z" transform="translate(-19.209 -5.779)" fill="#4c4948" stroke="#fff" stroke-width="0.5"/>
  </g>
</svg>
