<svg xmlns="http://www.w3.org/2000/svg" width="41.48" height="41.48" viewBox="0 0 41.48 41.48">
  <g id="lens" transform="translate(0.4 0.4)" opacity="0.454">
    <path id="패스_2355" data-name="패스 2355" d="M20.34,0A20.34,20.34,0,1,0,40.68,20.34,20.384,20.384,0,0,0,20.34,0Zm0,38.3A17.956,17.956,0,1,1,38.3,20.34,17.977,17.977,0,0,1,20.34,38.3Z" stroke="#fff" stroke-width="0.8"/>
    <path id="패스_2356" data-name="패스 2356" d="M75.634,60H75.6a15.6,15.6,0,0,0-.012,31.2h.02A15.6,15.6,0,0,0,75.634,60Zm3.434,21.57H72.154L68.707,75.6l3.427-5.968h6.914L82.5,75.6ZM62.388,75.6a13.148,13.148,0,0,1,.858-4.684L69.4,81.571H63.815A13.132,13.132,0,0,1,62.388,75.6Zm19.417-5.97h5.582a13.2,13.2,0,0,1,.569,10.653Zm4.022-2.388H73.5l2.778-4.838A13.2,13.2,0,0,1,85.827,67.243ZM73.436,62.566l-6.11,10.642L64.54,68.382A13.239,13.239,0,0,1,73.436,62.566ZM65.375,83.959H77.7L74.92,88.8A13.2,13.2,0,0,1,65.375,83.959Zm12.391,4.677,6.11-10.642,2.786,4.826A13.238,13.238,0,0,1,77.766,88.636Z" transform="translate(-55.261 -55.261)" stroke="#fff" stroke-width="0.8"/>
    <path id="패스_2357" data-name="패스 2357" d="M214.554,211a3.554,3.554,0,1,0,3.554,3.554A3.558,3.558,0,0,0,214.554,211Zm0,4.739a1.185,1.185,0,1,1,1.185-1.185A1.186,1.186,0,0,1,214.554,215.739Z" transform="translate(-194.214 -194.214)" stroke="#fff" stroke-width="0.8"/>
  </g>
</svg>
