<svg xmlns="http://www.w3.org/2000/svg" width="40.105" height="33.504" viewBox="0 0 40.105 33.504">
  <g id="traffic-cone" transform="translate(0.25 -50.552)">
    <g id="Page-1_34_" transform="translate(0 50.802)">
      <g id="_x30_35---Traffic-Cones" transform="translate(0)">
        <path id="Shape_94_" d="M35.644,78.525h-.2L25.577,51.667a1.325,1.325,0,0,0-1.239-.865H21.867a1.325,1.325,0,0,0-1.239.865L16.909,61.79l-3.066-8.259a1.135,1.135,0,0,0-1.071-.749H10.99a1.132,1.132,0,0,0-1.067.741L4.9,67.04l-.007.016L2.842,72.584h-.2A2.64,2.64,0,0,0,0,75.225a1.32,1.32,0,0,0,1.32,1.32H11.485l-.726,1.98h-.2a3.964,3.964,0,0,0-3.96,3.96,1.32,1.32,0,0,0,1.32,1.32H38.284a1.32,1.32,0,0,0,1.32-1.32A3.964,3.964,0,0,0,35.644,78.525Zm-17.9-15.182H28.461L31.129,70.6H15.077Zm2.668-7.261h5.381l2.183,5.941H18.229Zm3.926-3.96.97,2.64H20.9l.97-2.64ZM15.126,66.644H6.457l1.716-4.621h7.414l.621,1.673Zm-4.991-9.9h3.492L15.1,60.7H8.664Zm.981-2.64h1.531l.49,1.32h-2.51ZM5.967,67.964h8.673l-1.7,4.62H4.25ZM1.32,75.225A1.32,1.32,0,0,1,2.64,73.9h9.818l-.485,1.32Zm11.72.924.005-.013.964-2.627.007-.017.575-1.567H31.614l2.425,6.6H12.167Zm-5.12,6.337a2.64,2.64,0,0,1,2.64-2.64H35.644a2.644,2.644,0,0,1,2.64,2.64Z" transform="translate(0 -50.802)" fill="#4c4948" stroke="#fff" stroke-width="0.5"/>
      </g>
    </g>
  </g>
</svg>
