<svg id="레이어_1" data-name="레이어 1" xmlns="http://www.w3.org/2000/svg" viewBox="0 0 195.81 56.62"><defs><style>.cls-1{fill:#fbb584;}.cls-2{fill:#f89b6c;}.cls-3{fill:#f37321;}</style></defs><path class="cls-1" d="M23.08,29.06c-.81-7.37,6.92-13.28,17.26-13.2S59.72,22,60.53,29.34s-6.91,13.28-17.25,13.2-19.39-6.11-20.2-13.48m39.37,2.29c-.93-9.14-11.34-16.63-23.24-16.73S18.42,21.86,19.35,31,30.69,47.62,42.59,47.72s20.8-7.23,19.86-16.37" transform="translate(0 -0.08)"/><path class="cls-2" d="M44.48,47.9c-5.86,6.1-15.27,6.64-21,1.1s-5.65-14.92.22-21,15.27-6.64,21-1.14,5.65,14.92-.22,21M22.77,27.8c-6.82,7.12-6.93,18.07-.25,24.46s17.61,5.8,24.42-1.32,6.93-18.07.25-24.46-17.61-5.8-24.42,1.32" transform="translate(0 -0.08)"/><path class="cls-3" d="M23.39,4.88C35.58.31,47.64,4.93,50.32,15.2s-5,22.3-17.23,26.87S8.84,42,6.17,31.75s5-22.3,17.22-26.87M12.07,8.8C-.58,18.82-3.8,33.33,4.87,41.21s26,6.16,38.62-3.86S59.36,12.83,50.68,5s-26-6.16-38.61,3.85" transform="translate(0 -0.08)"/><path d="M85.16,22.19H71V19.92H85.2Zm-7.1,10a6.78,6.78,0,0,1-4.38-1.36,4,4,0,0,1,0-6.5,7.74,7.74,0,0,1,8.76,0,4,4,0,0,1,0,6.5,6.82,6.82,0,0,1-4.38,1.34Zm1.08,5.22H91.42v2.43h-13q-4.22,0-4.22-3.93V33.36h3.17v2.16a1.63,1.63,0,0,0,1.36,1.86,1.88,1.88,0,0,0,.41,0ZM74.41,16.8H81.7v2.3H74.41ZM78.06,30a3.33,3.33,0,0,0,2.12-.69,2.07,2.07,0,0,0,.52-2.88,2.14,2.14,0,0,0-.52-.52,3.62,3.62,0,0,0-4.25,0,2.08,2.08,0,0,0-.5,2.9,2.37,2.37,0,0,0,.5.5A3.34,3.34,0,0,0,78.06,30Zm13.25-7h3.27v2.48H91.31v8H88.17V17.2h3.14Z" transform="translate(0 -0.08)"/><path d="M102.82,32a6.15,6.15,0,0,1-2.88-1.27,4,4,0,0,1,.06-6.46,7.74,7.74,0,0,1,8.76,0,4,4,0,0,1,0,6.46A6.29,6.29,0,0,1,106,32v2.4h3.51c3.17,0,4.75-1.23,4.75-3.67V17.2h3.14v7.6h3.28v2.51H117.4V39.88h-3.14V35.62A6.16,6.16,0,0,1,110,36.89H96.72V34.44h6.1Zm8.61-9.85H97.22V19.92h14.21ZM100.74,16.8H108v2.3h-7.28ZM104.38,30a3.33,3.33,0,0,0,2.12-.69,2.07,2.07,0,0,0,.52-2.88,2.14,2.14,0,0,0-.52-.52,3.62,3.62,0,0,0-4.25,0,2.08,2.08,0,0,0-.5,2.9,2.37,2.37,0,0,0,.5.5A3.34,3.34,0,0,0,104.38,30Z" transform="translate(0 -0.08)"/><path d="M134.32,32.67v2.45h-6.9c-2.71,0-4.07-1.39-4.06-4.17V17.57h9.82V20H126.4v4.8h5.7v2.43h-5.7v3.54c0,1.27.55,1.9,1.66,1.9Zm2.21-15.47h3V39.88h-3V27.34h-2.85V24.8h2.85Zm4.91,0h3.09V39.88h-3.09Z" transform="translate(0 -0.08)"/><path d="M171.3,37.53H148.15V35H171.3ZM150.45,25.59h14.81v-3.4a1.72,1.72,0,0,0-1.47-1.94,1.89,1.89,0,0,0-.53,0H150.45V17.81h14c2.65,0,4,1.32,4,4V32.7h-3.16V28H150.45Z" transform="translate(0 -0.08)"/><path d="M175.71,23a5.21,5.21,0,0,1,2-4.23,8.18,8.18,0,0,1,9.79,0,5.21,5.21,0,0,1,2,4.23,5.12,5.12,0,0,1-1.61,3.88h3.38v2.43h-8v3.41h-3.14V29.34H174.4V26.91h3A5.14,5.14,0,0,1,175.71,23Zm7.1,14.36h13v2.43H181.94c-2.82,0-4.22-1.4-4.22-4.2v-2h3.14v1.79a1.73,1.73,0,0,0,1.43,2,1.81,1.81,0,0,0,.52,0Zm-3.9-14.3A3.28,3.28,0,0,0,180,25.62a3.94,3.94,0,0,0,5.19,0,3.25,3.25,0,0,0,1.08-2.53,3.39,3.39,0,0,0-1.08-2.59,3.67,3.67,0,0,0-2.59-1,3.75,3.75,0,0,0-2.6,1,3.38,3.38,0,0,0-1.09,2.59Zm16.81-5.89V34.86h-3.14V17.2Z" transform="translate(0 -0.08)"/></svg>